<?xml version="1.0" encoding="UTF-8" standalone="no"?>
<!DOCTYPE svg PUBLIC "-//W3C//DTD SVG 1.1//EN"
 "http://www.w3.org/Graphics/SVG/1.1/DTD/svg11.dtd">
<!-- Generated by graphviz version 2.40.1 (20161225.0304)
 -->
<!-- Title: G Pages: 1 -->
<svg width="307pt" height="153pt"
 viewBox="0.00 0.00 306.75 152.68" xmlns="http://www.w3.org/2000/svg" xmlns:xlink="http://www.w3.org/1999/xlink">
<g id="graph0" class="graph" transform="scale(1 1) rotate(0) translate(4 148.6821)">
<title>G</title><style>.edge>path:hover{stroke-width:8}</style>
<polygon fill="#ffffff" stroke="transparent" points="-4,4 -4,-148.6821 302.7488,-148.6821 302.7488,4 -4,4"/>
<!-- grpc -->
<g id="node1" class="node">
<title>grpc</title><style>.edge>path:hover{stroke-width:8}</style>
<polygon fill="#19e6e6" stroke="#000000" points="54,-114.2652 54,-129.1769 38.1838,-139.7211 15.8162,-139.7211 0,-129.1769 0,-114.2652 15.8162,-103.7211 38.1838,-103.7211 54,-114.2652"/>
<text text-anchor="middle" x="27" y="-119.2211" font-family="Helvetica,sans-Serif" font-size="10.00" fill="#000000">grpc</text>
</g>
<!-- fledge_pipelines -->
<g id="node2" class="node">
<title>fledge_pipelines</title><style>.edge>path:hover{stroke-width:8}</style>
<polygon fill="#b81414" stroke="#000000" points="165.8755,-112.2265 165.8755,-131.2157 138.4165,-144.6432 99.5835,-144.6432 72.1245,-131.2157 72.1245,-112.2265 99.5835,-98.799 138.4165,-98.799 165.8755,-112.2265"/>
<text text-anchor="middle" x="119" y="-124.7211" font-family="Helvetica,sans-Serif" font-size="10.00" fill="#ffffff">fledge.</text>
<text text-anchor="middle" x="119" y="-113.7211" font-family="Helvetica,sans-Serif" font-size="10.00" fill="#ffffff">pipelines</text>
</g>
<!-- fledge_pipelines_tensor_codec -->
<g id="node5" class="node">
<title>fledge_pipelines_tensor_codec</title><style>.edge>path:hover{stroke-width:8}</style>
<polygon fill="#b03a3a" stroke="#000000" points="180.9894,-18.4315 180.9894,-44.3286 144.6769,-62.6406 93.3231,-62.6406 57.0106,-44.3286 57.0106,-18.4315 93.3231,-.1195 144.6769,-.1195 180.9894,-18.4315"/>
<text text-anchor="middle" x="119" y="-39.88" font-family="Helvetica,sans-Serif" font-size="10.00" fill="#ffffff">fledge.</text>
<text text-anchor="middle" x="119" y="-28.88" font-family="Helvetica,sans-Serif" font-size="10.00" fill="#ffffff">pipelines.</text>
<text text-anchor="middle" x="119" y="-17.88" font-family="Helvetica,sans-Serif" font-size="10.00" fill="#ffffff">tensor_codec</text>
</g>
<!-- fledge_pipelines&#45;&gt;fledge_pipelines_tensor_codec -->
<g id="edge1" class="edge">
<title>fledge_pipelines&#45;&gt;fledge_pipelines_tensor_codec</title><style>.edge>path:hover{stroke-width:8}</style>
<path fill="none" stroke="#000000" d="M113.0118,-98.456C112.4221,-90.6401 112.1747,-81.6698 112.2698,-72.8855"/>
<polygon fill="#b81414" stroke="#000000" points="115.7724,-72.8285 112.5386,-62.7393 108.7749,-72.643 115.7724,-72.8285"/>
</g>
<!-- fledge_protocols -->
<g id="node3" class="node">
<title>fledge_protocols</title><style>.edge>path:hover{stroke-width:8}</style>
<polygon fill="#e50505" stroke="#000000" points="296.4055,-112.2265 296.4055,-131.2157 268.636,-144.6432 229.364,-144.6432 201.5945,-131.2157 201.5945,-112.2265 229.364,-98.799 268.636,-98.799 296.4055,-112.2265"/>
<text text-anchor="middle" x="249" y="-124.7211" font-family="Helvetica,sans-Serif" font-size="10.00" fill="#ffffff">fledge.</text>
<text text-anchor="middle" x="249" y="-113.7211" font-family="Helvetica,sans-Serif" font-size="10.00" fill="#ffffff">protocols</text>
</g>
<!-- fledge_protocols_utils -->
<g id="node4" class="node">
<title>fledge_protocols_utils</title><style>.edge>path:hover{stroke-width:8}</style>
<polygon fill="#b03a3a" stroke="#000000" points="298.9989,-18.4315 298.9989,-44.3286 269.7102,-62.6406 228.2898,-62.6406 199.0011,-44.3286 199.0011,-18.4315 228.2898,-.1195 269.7102,-.1195 298.9989,-18.4315"/>
<text text-anchor="middle" x="249" y="-39.88" font-family="Helvetica,sans-Serif" font-size="10.00" fill="#ffffff">fledge.</text>
<text text-anchor="middle" x="249" y="-28.88" font-family="Helvetica,sans-Serif" font-size="10.00" fill="#ffffff">protocols.</text>
<text text-anchor="middle" x="249" y="-17.88" font-family="Helvetica,sans-Serif" font-size="10.00" fill="#ffffff">utils</text>
</g>
<!-- fledge_protocols&#45;&gt;fledge_protocols_utils -->
<g id="edge3" class="edge">
<title>fledge_protocols&#45;&gt;fledge_protocols_utils</title><style>.edge>path:hover{stroke-width:8}</style>
<path fill="none" stroke="#000000" d="M243.0118,-98.456C242.4221,-90.6401 242.1747,-81.6698 242.2698,-72.8855"/>
<polygon fill="#e50505" stroke="#000000" points="245.7724,-72.8285 242.5386,-62.7393 238.7749,-72.643 245.7724,-72.8285"/>
</g>
<!-- fledge_protocols_utils&#45;&gt;fledge_protocols -->
<g id="edge4" class="edge">
<title>fledge_protocols_utils&#45;&gt;fledge_protocols</title><style>.edge>path:hover{stroke-width:8}</style>
<path fill="none" stroke="#000000" d="M255.4614,-62.7393C255.8165,-70.9893 255.8439,-79.9195 255.5437,-88.2747"/>
<polygon fill="#b03a3a" stroke="#000000" points="252.0383,-88.2802 254.9882,-98.456 259.0279,-88.6616 252.0383,-88.2802"/>
</g>
<!-- fledge_pipelines_tensor_codec&#45;&gt;fledge_pipelines -->
<g id="edge2" class="edge">
<title>fledge_pipelines_tensor_codec&#45;&gt;fledge_pipelines</title><style>.edge>path:hover{stroke-width:8}</style>
<path fill="none" stroke="#000000" d="M125.4614,-62.7393C125.8165,-70.9893 125.8439,-79.9195 125.5437,-88.2747"/>
<polygon fill="#b03a3a" stroke="#000000" points="122.0383,-88.2802 124.9882,-98.456 129.0279,-88.6616 122.0383,-88.2802"/>
</g>
</g>
</svg>
