<?xml version="1.0" encoding="UTF-8" standalone="no"?>
<!DOCTYPE svg PUBLIC "-//W3C//DTD SVG 1.1//EN"
 "http://www.w3.org/Graphics/SVG/1.1/DTD/svg11.dtd">
<!-- Generated by graphviz version 2.40.1 (20161225.0304)
 -->
<!-- Title: G Pages: 1 -->
<svg width="2019pt" height="1263pt"
 viewBox="0.00 0.00 2019.46 1262.53" xmlns="http://www.w3.org/2000/svg" xmlns:xlink="http://www.w3.org/1999/xlink">
<g id="graph0" class="graph" transform="scale(1 1) rotate(0) translate(4 1258.5332)">
<title>G</title><style>.edge>path:hover{stroke-width:8}</style>
<polygon fill="#ffffff" stroke="transparent" points="-4,4 -4,-1258.5332 2015.4587,-1258.5332 2015.4587,4 -4,4"/>
<!-- fledge_aggregator -->
<g id="node1" class="node">
<title>fledge_aggregator</title><style>.edge>path:hover{stroke-width:8}</style>
<ellipse fill="#c04040" stroke="#000000" cx="1159.9992" cy="-475.5706" rx="49.4949" ry="21.4286"/>
<text text-anchor="middle" x="1159.9992" y="-478.5706" font-family="Helvetica,sans-Serif" font-size="10.00" fill="#ffffff">fledge.</text>
<text text-anchor="middle" x="1159.9992" y="-467.5706" font-family="Helvetica,sans-Serif" font-size="10.00" fill="#ffffff">aggregator</text>
</g>
<!-- fledge_federated_flplan -->
<g id="node13" class="node">
<title>fledge_federated_flplan</title><style>.edge>path:hover{stroke-width:8}</style>
<ellipse fill="#993333" stroke="#000000" cx="1236.9992" cy="-107.4178" rx="47.2526" ry="28.9828"/>
<text text-anchor="middle" x="1236.9992" y="-115.9178" font-family="Helvetica,sans-Serif" font-size="10.00" fill="#ffffff">fledge.</text>
<text text-anchor="middle" x="1236.9992" y="-104.9178" font-family="Helvetica,sans-Serif" font-size="10.00" fill="#ffffff">federated.</text>
<text text-anchor="middle" x="1236.9992" y="-93.9178" font-family="Helvetica,sans-Serif" font-size="10.00" fill="#ffffff">flplan</text>
</g>
<!-- fledge_aggregator&#45;&gt;fledge_federated_flplan -->
<g id="edge1" class="edge">
<title>fledge_aggregator&#45;&gt;fledge_federated_flplan</title><style>.edge>path:hover{stroke-width:8}</style>
<path fill="none" stroke="#000000" d="M1180.3436,-455.8679C1198.6367,-436.7688 1224.4943,-406.0291 1236.9992,-373.8097"/>
</g>
<!-- fledge_aggregator_aggregator -->
<g id="node2" class="node">
<title>fledge_aggregator_aggregator</title><style>.edge>path:hover{stroke-width:8}</style>
<ellipse fill="#a13535" stroke="#000000" cx="1157.9992" cy="-577.3316" rx="50.8235" ry="28.9828"/>
<text text-anchor="middle" x="1157.9992" y="-585.8316" font-family="Helvetica,sans-Serif" font-size="10.00" fill="#ffffff">fledge.</text>
<text text-anchor="middle" x="1157.9992" y="-574.8316" font-family="Helvetica,sans-Serif" font-size="10.00" fill="#ffffff">aggregator.</text>
<text text-anchor="middle" x="1157.9992" y="-563.8316" font-family="Helvetica,sans-Serif" font-size="10.00" fill="#ffffff">aggregator</text>
</g>
<!-- fledge_aggregator_aggregator&#45;&gt;fledge_aggregator -->
<g id="edge2" class="edge">
<title>fledge_aggregator_aggregator&#45;&gt;fledge_aggregator</title><style>.edge>path:hover{stroke-width:8}</style>
<path fill="none" stroke="#000000" d="M1158.5724,-548.171C1158.8256,-535.2878 1159.1237,-520.1175 1159.3818,-506.9847"/>
<polygon fill="#a13535" stroke="#000000" points="1162.8813,-507.0387 1159.5786,-496.9719 1155.8827,-506.9011 1162.8813,-507.0387"/>
</g>
<!-- fledge_assigner -->
<g id="node3" class="node">
<title>fledge_assigner</title><style>.edge>path:hover{stroke-width:8}</style>
<ellipse fill="#a44646" stroke="#000000" cx="1698.9992" cy="-1139.3372" rx="41.0244" ry="21.4286"/>
<text text-anchor="middle" x="1698.9992" y="-1142.3372" font-family="Helvetica,sans-Serif" font-size="10.00" fill="#ffffff">fledge.</text>
<text text-anchor="middle" x="1698.9992" y="-1131.3372" font-family="Helvetica,sans-Serif" font-size="10.00" fill="#ffffff">assigner</text>
</g>
<!-- fledge_assigner_assigner -->
<g id="node4" class="node">
<title>fledge_assigner_assigner</title><style>.edge>path:hover{stroke-width:8}</style>
<ellipse fill="#c24747" stroke="#000000" cx="1534.9992" cy="-1225.5418" rx="42.3529" ry="28.9828"/>
<text text-anchor="middle" x="1534.9992" y="-1234.0418" font-family="Helvetica,sans-Serif" font-size="10.00" fill="#ffffff">fledge.</text>
<text text-anchor="middle" x="1534.9992" y="-1223.0418" font-family="Helvetica,sans-Serif" font-size="10.00" fill="#ffffff">assigner.</text>
<text text-anchor="middle" x="1534.9992" y="-1212.0418" font-family="Helvetica,sans-Serif" font-size="10.00" fill="#ffffff">assigner</text>
</g>
<!-- fledge_assigner_assigner&#45;&gt;fledge_assigner -->
<g id="edge3" class="edge">
<title>fledge_assigner_assigner&#45;&gt;fledge_assigner</title><style>.edge>path:hover{stroke-width:8}</style>
<path fill="none" stroke="#000000" d="M1567.9104,-1206.9565C1574.224,-1203.4583 1580.7992,-1199.861 1586.9992,-1196.5504 1611.1595,-1183.65 1638.5334,-1169.6554 1660.1708,-1158.7361"/>
<polygon fill="#c24747" stroke="#000000" points="1662.013,-1161.7273 1669.3709,-1154.1041 1658.8651,-1155.475 1662.013,-1161.7273"/>
</g>
<!-- fledge_assigner_random_grouped_assigner -->
<g id="node5" class="node">
<title>fledge_assigner_random_grouped_assigner</title><style>.edge>path:hover{stroke-width:8}</style>
<ellipse fill="#c24747" stroke="#000000" cx="1698.9992" cy="-1225.5418" rx="103.4757" ry="28.9828"/>
<text text-anchor="middle" x="1698.9992" y="-1234.0418" font-family="Helvetica,sans-Serif" font-size="10.00" fill="#ffffff">fledge.</text>
<text text-anchor="middle" x="1698.9992" y="-1223.0418" font-family="Helvetica,sans-Serif" font-size="10.00" fill="#ffffff">assigner.</text>
<text text-anchor="middle" x="1698.9992" y="-1212.0418" font-family="Helvetica,sans-Serif" font-size="10.00" fill="#ffffff">random_grouped_assigner</text>
</g>
<!-- fledge_assigner_random_grouped_assigner&#45;&gt;fledge_assigner -->
<g id="edge4" class="edge">
<title>fledge_assigner_random_grouped_assigner&#45;&gt;fledge_assigner</title><style>.edge>path:hover{stroke-width:8}</style>
<path fill="none" stroke="#000000" d="M1698.9992,-1196.3569C1698.9992,-1188.1143 1698.9992,-1179.111 1698.9992,-1170.7439"/>
<polygon fill="#c24747" stroke="#000000" points="1702.4993,-1170.5909 1698.9992,-1160.5909 1695.4993,-1170.591 1702.4993,-1170.5909"/>
</g>
<!-- fledge_assigner_static_grouped_assigner -->
<g id="node6" class="node">
<title>fledge_assigner_static_grouped_assigner</title><style>.edge>path:hover{stroke-width:8}</style>
<ellipse fill="#c24747" stroke="#000000" cx="1915.9992" cy="-1225.5418" rx="95.4188" ry="28.9828"/>
<text text-anchor="middle" x="1915.9992" y="-1234.0418" font-family="Helvetica,sans-Serif" font-size="10.00" fill="#ffffff">fledge.</text>
<text text-anchor="middle" x="1915.9992" y="-1223.0418" font-family="Helvetica,sans-Serif" font-size="10.00" fill="#ffffff">assigner.</text>
<text text-anchor="middle" x="1915.9992" y="-1212.0418" font-family="Helvetica,sans-Serif" font-size="10.00" fill="#ffffff">static_grouped_assigner</text>
</g>
<!-- fledge_assigner_static_grouped_assigner&#45;&gt;fledge_assigner -->
<g id="edge5" class="edge">
<title>fledge_assigner_static_grouped_assigner&#45;&gt;fledge_assigner</title><style>.edge>path:hover{stroke-width:8}</style>
<path fill="none" stroke="#000000" d="M1857.8472,-1202.4406C1821.0543,-1187.8243 1774.3364,-1169.2654 1741.1106,-1156.0662"/>
<polygon fill="#c24747" stroke="#000000" points="1742.2739,-1152.7624 1731.6882,-1152.3231 1739.6896,-1159.2678 1742.2739,-1152.7624"/>
</g>
<!-- fledge_collaborator -->
<g id="node7" class="node">
<title>fledge_collaborator</title><style>.edge>path:hover{stroke-width:8}</style>
<ellipse fill="#c04040" stroke="#000000" cx="1034.9992" cy="-475.5706" rx="53.066" ry="21.4286"/>
<text text-anchor="middle" x="1034.9992" y="-478.5706" font-family="Helvetica,sans-Serif" font-size="10.00" fill="#ffffff">fledge.</text>
<text text-anchor="middle" x="1034.9992" y="-467.5706" font-family="Helvetica,sans-Serif" font-size="10.00" fill="#ffffff">collaborator</text>
</g>
<!-- fledge_collaborator&#45;&gt;fledge_federated_flplan -->
<g id="edge6" class="edge">
<title>fledge_collaborator&#45;&gt;fledge_federated_flplan</title><style>.edge>path:hover{stroke-width:8}</style>
<path fill="none" stroke="#000000" d="M1065.837,-458.1993C1077.1411,-451.9504 1090.0835,-444.9335 1101.9992,-438.8011 1161.209,-408.329 1212.9051,-435.8888 1236.9992,-373.8097"/>
<path fill="none" stroke="#000000" d="M1236.9992,-373.8097C1264.7244,-302.3751 1252.0571,-276.5328 1236.9992,-201.4005"/>
<path fill="none" stroke="#000000" d="M1236.9992,-201.4005C1232.8068,-183.7864 1232.249,-163.7836 1232.9625,-146.7726"/>
<polygon fill="#c04040" stroke="#000000" points="1236.4667,-146.801 1233.55,-136.6156 1229.4783,-146.3968 1236.4667,-146.801"/>
</g>
<!-- fledge_collaborator_collaborator -->
<g id="node8" class="node">
<title>fledge_collaborator_collaborator</title><style>.edge>path:hover{stroke-width:8}</style>
<ellipse fill="#a13535" stroke="#000000" cx="1034.9992" cy="-577.3316" rx="54.3945" ry="28.9828"/>
<text text-anchor="middle" x="1034.9992" y="-585.8316" font-family="Helvetica,sans-Serif" font-size="10.00" fill="#ffffff">fledge.</text>
<text text-anchor="middle" x="1034.9992" y="-574.8316" font-family="Helvetica,sans-Serif" font-size="10.00" fill="#ffffff">collaborator.</text>
<text text-anchor="middle" x="1034.9992" y="-563.8316" font-family="Helvetica,sans-Serif" font-size="10.00" fill="#ffffff">collaborator</text>
</g>
<!-- fledge_collaborator_collaborator&#45;&gt;fledge_collaborator -->
<g id="edge7" class="edge">
<title>fledge_collaborator_collaborator&#45;&gt;fledge_collaborator</title><style>.edge>path:hover{stroke-width:8}</style>
<path fill="none" stroke="#000000" d="M1034.9992,-548.171C1034.9992,-535.2878 1034.9992,-520.1175 1034.9992,-506.9847"/>
<polygon fill="#a13535" stroke="#000000" points="1038.4993,-506.9718 1034.9992,-496.9719 1031.4993,-506.9719 1038.4993,-506.9718"/>
</g>
<!-- fledge_databases -->
<g id="node9" class="node">
<title>fledge_databases</title><style>.edge>path:hover{stroke-width:8}</style>
<ellipse fill="#cc3333" stroke="#000000" cx="60.9992" cy="-700.5361" rx="47.2526" ry="21.4286"/>
<text text-anchor="middle" x="60.9992" y="-703.5361" font-family="Helvetica,sans-Serif" font-size="10.00" fill="#ffffff">fledge.</text>
<text text-anchor="middle" x="60.9992" y="-692.5361" font-family="Helvetica,sans-Serif" font-size="10.00" fill="#ffffff">databases</text>
</g>
<!-- fledge_databases&#45;&gt;fledge_aggregator_aggregator -->
<g id="edge8" class="edge">
<title>fledge_databases&#45;&gt;fledge_aggregator_aggregator</title><style>.edge>path:hover{stroke-width:8}</style>
<path fill="none" stroke="#000000" d="M97.7245,-687.0663C115.8317,-677.8918 134.5389,-663.5864 137.9992,-642.8229"/>
<path fill="none" stroke="#000000" d="M137.9992,-642.8229C146.7729,-590.1772 1046.209,-619.2197 1097.9992,-606.3229 1102.7317,-605.1445 1107.5326,-603.5679 1112.2511,-601.7564"/>
<polygon fill="#cc3333" stroke="#000000" points="1113.906,-604.8577 1121.7722,-597.7603 1111.1969,-598.4032 1113.906,-604.8577"/>
</g>
<!-- fledge_databases&#45;&gt;fledge_collaborator_collaborator -->
<g id="edge9" class="edge">
<title>fledge_databases&#45;&gt;fledge_collaborator_collaborator</title><style>.edge>path:hover{stroke-width:8}</style>
<path fill="none" stroke="#000000" d="M59.6293,-679.0653C59.28,-668.1629 59.3812,-654.7372 60.9992,-642.8229"/>
</g>
<!-- fledge_databases_tensor_db -->
<g id="node10" class="node">
<title>fledge_databases_tensor_db</title><style>.edge>path:hover{stroke-width:8}</style>
<ellipse fill="#b83d3d" stroke="#000000" cx="60.9992" cy="-786.7407" rx="49.4949" ry="28.9828"/>
<text text-anchor="middle" x="60.9992" y="-795.2407" font-family="Helvetica,sans-Serif" font-size="10.00" fill="#ffffff">fledge.</text>
<text text-anchor="middle" x="60.9992" y="-784.2407" font-family="Helvetica,sans-Serif" font-size="10.00" fill="#ffffff">databases.</text>
<text text-anchor="middle" x="60.9992" y="-773.2407" font-family="Helvetica,sans-Serif" font-size="10.00" fill="#ffffff">tensor_db</text>
</g>
<!-- fledge_databases_tensor_db&#45;&gt;fledge_databases -->
<g id="edge10" class="edge">
<title>fledge_databases_tensor_db&#45;&gt;fledge_databases</title><style>.edge>path:hover{stroke-width:8}</style>
<path fill="none" stroke="#000000" d="M60.9992,-757.5558C60.9992,-749.3132 60.9992,-740.3099 60.9992,-731.9428"/>
<polygon fill="#b83d3d" stroke="#000000" points="64.4993,-731.7898 60.9992,-721.7898 57.4993,-731.7899 64.4993,-731.7898"/>
</g>
<!-- fledge_federated -->
<g id="node11" class="node">
<title>fledge_federated</title><style>.edge>path:hover{stroke-width:8}</style>
<ellipse fill="#ac4949" stroke="#000000" cx="1198.9992" cy="-21.2132" rx="45.011" ry="21.4286"/>
<text text-anchor="middle" x="1198.9992" y="-24.2132" font-family="Helvetica,sans-Serif" font-size="10.00" fill="#ffffff">fledge.</text>
<text text-anchor="middle" x="1198.9992" y="-13.2132" font-family="Helvetica,sans-Serif" font-size="10.00" fill="#ffffff">federated</text>
</g>
<!-- fledge_federated_config -->
<g id="node12" class="node">
<title>fledge_federated_config</title><style>.edge>path:hover{stroke-width:8}</style>
<ellipse fill="#ce3b3b" stroke="#000000" cx="1161.9992" cy="-201.4005" rx="47.2526" ry="28.9828"/>
<text text-anchor="middle" x="1161.9992" y="-209.9005" font-family="Helvetica,sans-Serif" font-size="10.00" fill="#ffffff">fledge.</text>
<text text-anchor="middle" x="1161.9992" y="-198.9005" font-family="Helvetica,sans-Serif" font-size="10.00" fill="#ffffff">federated.</text>
<text text-anchor="middle" x="1161.9992" y="-187.9005" font-family="Helvetica,sans-Serif" font-size="10.00" fill="#ffffff">config</text>
</g>
<!-- fledge_federated_config&#45;&gt;fledge_federated -->
<g id="edge11" class="edge">
<title>fledge_federated_config&#45;&gt;fledge_federated</title><style>.edge>path:hover{stroke-width:8}</style>
<path fill="none" stroke="#000000" d="M1165.2283,-172.3409C1168.3131,-147.2712 1173.5927,-110.195 1180.9992,-78.4264 1183.0384,-69.6799 1185.7467,-60.3327 1188.4418,-51.7824"/>
<polygon fill="#ce3b3b" stroke="#000000" points="1191.7955,-52.7871 1191.5587,-42.1949 1185.1384,-50.6229 1191.7955,-52.7871"/>
</g>
<!-- fledge_federated_config&#45;&gt;fledge_federated_flplan -->
<g id="edge12" class="edge">
<title>fledge_federated_config&#45;&gt;fledge_federated_flplan</title><style>.edge>path:hover{stroke-width:8}</style>
<path fill="none" stroke="#000000" d="M1182.8909,-175.2211C1191.1919,-164.8191 1200.8535,-152.7122 1209.6964,-141.6311"/>
<polygon fill="#ce3b3b" stroke="#000000" points="1212.4576,-143.7822 1215.9595,-133.7828 1206.9862,-139.4159 1212.4576,-143.7822"/>
</g>
<!-- fledge_federated_flplan&#45;&gt;fledge_federated -->
<g id="edge13" class="edge">
<title>fledge_federated_flplan&#45;&gt;fledge_federated</title><style>.edge>path:hover{stroke-width:8}</style>
<path fill="none" stroke="#000000" d="M1224.5566,-79.1912C1220.6463,-70.3204 1216.3135,-60.4914 1212.3433,-51.4848"/>
<polygon fill="#993333" stroke="#000000" points="1215.451,-49.8574 1208.2147,-42.1187 1209.0457,-52.6809 1215.451,-49.8574"/>
</g>
<!-- fledge_pipelines -->
<g id="node14" class="node">
<title>fledge_pipelines</title><style>.edge>path:hover{stroke-width:8}</style>
<ellipse fill="#b81414" stroke="#000000" cx="630.9992" cy="-700.5361" rx="43.2674" ry="21.4286"/>
<text text-anchor="middle" x="630.9992" y="-703.5361" font-family="Helvetica,sans-Serif" font-size="10.00" fill="#ffffff">fledge.</text>
<text text-anchor="middle" x="630.9992" y="-692.5361" font-family="Helvetica,sans-Serif" font-size="10.00" fill="#ffffff">pipelines</text>
</g>
<!-- fledge_pipelines&#45;&gt;fledge_aggregator_aggregator -->
<g id="edge14" class="edge">
<title>fledge_pipelines&#45;&gt;fledge_aggregator_aggregator</title><style>.edge>path:hover{stroke-width:8}</style>
<path fill="none" stroke="#000000" d="M587.8123,-699.9301C466.2717,-697.672 130.5709,-687.3961 137.9992,-642.8229"/>
</g>
<!-- fledge_pipelines&#45;&gt;fledge_collaborator_collaborator -->
<g id="edge15" class="edge">
<title>fledge_pipelines&#45;&gt;fledge_collaborator_collaborator</title><style>.edge>path:hover{stroke-width:8}</style>
<path fill="none" stroke="#000000" d="M587.855,-698.4194C454.3993,-691.5919 57.4354,-669.0644 60.9992,-642.8229"/>
</g>
<!-- fledge_pipelines&#45;&gt;fledge_federated_flplan -->
<g id="edge16" class="edge">
<title>fledge_pipelines&#45;&gt;fledge_federated_flplan</title><style>.edge>path:hover{stroke-width:8}</style>
<path fill="none" stroke="#000000" d="M673.7677,-696.7018C802.6691,-684.736 1180.8478,-646.4756 1217.9992,-606.3229 1288.4153,-530.2185 1191.3073,-466.8825 1236.9992,-373.8097"/>
</g>
<!-- fledge_pipelines_kc_pipeline -->
<g id="node15" class="node">
<title>fledge_pipelines_kc_pipeline</title><style>.edge>path:hover{stroke-width:8}</style>
<ellipse fill="#c04040" stroke="#000000" cx="877.9992" cy="-786.7407" rx="50.8235" ry="28.9828"/>
<text text-anchor="middle" x="877.9992" y="-795.2407" font-family="Helvetica,sans-Serif" font-size="10.00" fill="#ffffff">fledge.</text>
<text text-anchor="middle" x="877.9992" y="-784.2407" font-family="Helvetica,sans-Serif" font-size="10.00" fill="#ffffff">pipelines.</text>
<text text-anchor="middle" x="877.9992" y="-773.2407" font-family="Helvetica,sans-Serif" font-size="10.00" fill="#ffffff">kc_pipeline</text>
</g>
<!-- fledge_pipelines_kc_pipeline&#45;&gt;fledge_pipelines -->
<g id="edge17" class="edge">
<title>fledge_pipelines_kc_pipeline&#45;&gt;fledge_pipelines</title><style>.edge>path:hover{stroke-width:8}</style>
<path fill="none" stroke="#000000" d="M839.9781,-767.2921C832.765,-763.9113 825.216,-760.5776 817.9992,-757.7494 771.8623,-739.668 717.5477,-723.6066 679.3778,-713.1395"/>
<polygon fill="#c04040" stroke="#000000" points="680.1169,-709.7135 669.5491,-710.4699 678.2821,-716.4688 680.1169,-709.7135"/>
</g>
<!-- fledge_pipelines_no_compression_pipeline -->
<g id="node16" class="node">
<title>fledge_pipelines_no_compression_pipeline</title><style>.edge>path:hover{stroke-width:8}</style>
<ellipse fill="#c04040" stroke="#000000" cx="264.9992" cy="-786.7407" rx="98.9899" ry="28.9828"/>
<text text-anchor="middle" x="264.9992" y="-795.2407" font-family="Helvetica,sans-Serif" font-size="10.00" fill="#ffffff">fledge.</text>
<text text-anchor="middle" x="264.9992" y="-784.2407" font-family="Helvetica,sans-Serif" font-size="10.00" fill="#ffffff">pipelines.</text>
<text text-anchor="middle" x="264.9992" y="-773.2407" font-family="Helvetica,sans-Serif" font-size="10.00" fill="#ffffff">no_compression_pipeline</text>
</g>
<!-- fledge_pipelines_no_compression_pipeline&#45;&gt;fledge_pipelines -->
<g id="edge18" class="edge">
<title>fledge_pipelines_no_compression_pipeline&#45;&gt;fledge_pipelines</title><style>.edge>path:hover{stroke-width:8}</style>
<path fill="none" stroke="#000000" d="M337.2129,-766.8845C349.1449,-763.7393 361.4026,-760.5902 372.9992,-757.7494 445.0646,-740.0954 529.0387,-721.9143 581.1171,-710.9171"/>
<polygon fill="#c04040" stroke="#000000" points="582.0306,-714.3016 591.0945,-708.8157 580.5879,-707.4518 582.0306,-714.3016"/>
</g>
<!-- fledge_pipelines_pipeline -->
<g id="node17" class="node">
<title>fledge_pipelines_pipeline</title><style>.edge>path:hover{stroke-width:8}</style>
<ellipse fill="#f31616" stroke="#000000" cx="630.9992" cy="-880.7235" rx="45.011" ry="28.9828"/>
<text text-anchor="middle" x="630.9992" y="-889.2235" font-family="Helvetica,sans-Serif" font-size="10.00" fill="#ffffff">fledge.</text>
<text text-anchor="middle" x="630.9992" y="-878.2235" font-family="Helvetica,sans-Serif" font-size="10.00" fill="#ffffff">pipelines.</text>
<text text-anchor="middle" x="630.9992" y="-867.2235" font-family="Helvetica,sans-Serif" font-size="10.00" fill="#ffffff">pipeline</text>
</g>
<!-- fledge_pipelines_pipeline&#45;&gt;fledge_pipelines_kc_pipeline -->
<g id="edge19" class="edge">
<title>fledge_pipelines_pipeline&#45;&gt;fledge_pipelines_kc_pipeline</title><style>.edge>path:hover{stroke-width:8}</style>
<path fill="none" stroke="#000000" d="M671.9975,-867.9861C710.2282,-855.7545 768.6138,-836.1651 817.9992,-815.7321 822.14,-814.0189 826.4013,-812.1604 830.6519,-810.2398"/>
<polygon fill="#f31616" stroke="#000000" points="832.2815,-813.3424 839.8891,-805.9685 829.3435,-806.9888 832.2815,-813.3424"/>
</g>
<!-- fledge_pipelines_pipeline&#45;&gt;fledge_pipelines_no_compression_pipeline -->
<g id="edge20" class="edge">
<title>fledge_pipelines_pipeline&#45;&gt;fledge_pipelines_no_compression_pipeline</title><style>.edge>path:hover{stroke-width:8}</style>
<path fill="none" stroke="#000000" d="M588.4899,-870.2293C537.3085,-857.5448 448.7708,-835.4444 372.9992,-815.7321 364.7404,-813.5835 356.1336,-811.318 347.5418,-809.0391"/>
<polygon fill="#f31616" stroke="#000000" points="348.4307,-805.654 337.867,-806.466 346.6315,-812.4188 348.4307,-805.654"/>
</g>
<!-- fledge_pipelines_random_shift_pipeline -->
<g id="node18" class="node">
<title>fledge_pipelines_random_shift_pipeline</title><style>.edge>path:hover{stroke-width:8}</style>
<ellipse fill="#c04040" stroke="#000000" cx="469.9992" cy="-786.7407" rx="88.2768" ry="28.9828"/>
<text text-anchor="middle" x="469.9992" y="-795.2407" font-family="Helvetica,sans-Serif" font-size="10.00" fill="#ffffff">fledge.</text>
<text text-anchor="middle" x="469.9992" y="-784.2407" font-family="Helvetica,sans-Serif" font-size="10.00" fill="#ffffff">pipelines.</text>
<text text-anchor="middle" x="469.9992" y="-773.2407" font-family="Helvetica,sans-Serif" font-size="10.00" fill="#ffffff">random_shift_pipeline</text>
</g>
<!-- fledge_pipelines_pipeline&#45;&gt;fledge_pipelines_random_shift_pipeline -->
<g id="edge21" class="edge">
<title>fledge_pipelines_pipeline&#45;&gt;fledge_pipelines_random_shift_pipeline</title><style>.edge>path:hover{stroke-width:8}</style>
<path fill="none" stroke="#000000" d="M597.2484,-861.0216C575.568,-848.3659 546.9645,-831.6687 522.3686,-817.311"/>
<polygon fill="#f31616" stroke="#000000" points="523.9092,-814.1577 513.5085,-812.139 520.3803,-820.2031 523.9092,-814.1577"/>
</g>
<!-- fledge_pipelines_skc_pipeline -->
<g id="node19" class="node">
<title>fledge_pipelines_skc_pipeline</title><style>.edge>path:hover{stroke-width:8}</style>
<ellipse fill="#c04040" stroke="#000000" cx="630.9992" cy="-786.7407" rx="54.3945" ry="28.9828"/>
<text text-anchor="middle" x="630.9992" y="-795.2407" font-family="Helvetica,sans-Serif" font-size="10.00" fill="#ffffff">fledge.</text>
<text text-anchor="middle" x="630.9992" y="-784.2407" font-family="Helvetica,sans-Serif" font-size="10.00" fill="#ffffff">pipelines.</text>
<text text-anchor="middle" x="630.9992" y="-773.2407" font-family="Helvetica,sans-Serif" font-size="10.00" fill="#ffffff">skc_pipeline</text>
</g>
<!-- fledge_pipelines_pipeline&#45;&gt;fledge_pipelines_skc_pipeline -->
<g id="edge22" class="edge">
<title>fledge_pipelines_pipeline&#45;&gt;fledge_pipelines_skc_pipeline</title><style>.edge>path:hover{stroke-width:8}</style>
<path fill="none" stroke="#000000" d="M630.9992,-851.5019C630.9992,-843.4571 630.9992,-834.5975 630.9992,-826.0822"/>
<polygon fill="#f31616" stroke="#000000" points="634.4993,-825.9442 630.9992,-815.9442 627.4993,-825.9442 634.4993,-825.9442"/>
</g>
<!-- fledge_pipelines_stc_pipeline -->
<g id="node20" class="node">
<title>fledge_pipelines_stc_pipeline</title><style>.edge>path:hover{stroke-width:8}</style>
<ellipse fill="#c04040" stroke="#000000" cx="755.9992" cy="-786.7407" rx="53.066" ry="28.9828"/>
<text text-anchor="middle" x="755.9992" y="-795.2407" font-family="Helvetica,sans-Serif" font-size="10.00" fill="#ffffff">fledge.</text>
<text text-anchor="middle" x="755.9992" y="-784.2407" font-family="Helvetica,sans-Serif" font-size="10.00" fill="#ffffff">pipelines.</text>
<text text-anchor="middle" x="755.9992" y="-773.2407" font-family="Helvetica,sans-Serif" font-size="10.00" fill="#ffffff">stc_pipeline</text>
</g>
<!-- fledge_pipelines_pipeline&#45;&gt;fledge_pipelines_stc_pipeline -->
<g id="edge23" class="edge">
<title>fledge_pipelines_pipeline&#45;&gt;fledge_pipelines_stc_pipeline</title><style>.edge>path:hover{stroke-width:8}</style>
<path fill="none" stroke="#000000" d="M660.6225,-858.4509C677.276,-845.9297 698.2831,-830.1353 716.3406,-816.5586"/>
<polygon fill="#f31616" stroke="#000000" points="718.5139,-819.3035 724.4035,-810.4964 714.3073,-813.7084 718.5139,-819.3035"/>
</g>
<!-- fledge_pipelines_random_shift_pipeline&#45;&gt;fledge_pipelines -->
<g id="edge24" class="edge">
<title>fledge_pipelines_random_shift_pipeline&#45;&gt;fledge_pipelines</title><style>.edge>path:hover{stroke-width:8}</style>
<path fill="none" stroke="#000000" d="M516.5671,-761.8068C540.7278,-748.8704 569.8801,-733.2613 592.7134,-721.0356"/>
<polygon fill="#c04040" stroke="#000000" points="594.598,-723.9968 601.7617,-716.1909 591.2937,-717.8257 594.598,-723.9968"/>
</g>
<!-- fledge_pipelines_skc_pipeline&#45;&gt;fledge_pipelines -->
<g id="edge25" class="edge">
<title>fledge_pipelines_skc_pipeline&#45;&gt;fledge_pipelines</title><style>.edge>path:hover{stroke-width:8}</style>
<path fill="none" stroke="#000000" d="M630.9992,-757.5558C630.9992,-749.3132 630.9992,-740.3099 630.9992,-731.9428"/>
<polygon fill="#c04040" stroke="#000000" points="634.4993,-731.7898 630.9992,-721.7898 627.4993,-731.7899 634.4993,-731.7898"/>
</g>
<!-- fledge_pipelines_stc_pipeline&#45;&gt;fledge_pipelines -->
<g id="edge26" class="edge">
<title>fledge_pipelines_stc_pipeline&#45;&gt;fledge_pipelines</title><style>.edge>path:hover{stroke-width:8}</style>
<path fill="none" stroke="#000000" d="M722.8297,-763.8658C704.9286,-751.5205 682.8758,-736.3121 664.8682,-723.8934"/>
<polygon fill="#c04040" stroke="#000000" points="666.6082,-720.8418 656.389,-718.0458 662.6342,-726.6044 666.6082,-720.8418"/>
</g>
<!-- fledge_pipelines_tensor_codec -->
<g id="node21" class="node">
<title>fledge_pipelines_tensor_codec</title><style>.edge>path:hover{stroke-width:8}</style>
<ellipse fill="#b03a3a" stroke="#000000" cx="1003.9992" cy="-786.7407" rx="57.0522" ry="28.9828"/>
<text text-anchor="middle" x="1003.9992" y="-795.2407" font-family="Helvetica,sans-Serif" font-size="10.00" fill="#ffffff">fledge.</text>
<text text-anchor="middle" x="1003.9992" y="-784.2407" font-family="Helvetica,sans-Serif" font-size="10.00" fill="#ffffff">pipelines.</text>
<text text-anchor="middle" x="1003.9992" y="-773.2407" font-family="Helvetica,sans-Serif" font-size="10.00" fill="#ffffff">tensor_codec</text>
</g>
<!-- fledge_pipelines_tensor_codec&#45;&gt;fledge_pipelines -->
<g id="edge27" class="edge">
<title>fledge_pipelines_tensor_codec&#45;&gt;fledge_pipelines</title><style>.edge>path:hover{stroke-width:8}</style>
<path fill="none" stroke="#000000" d="M962.2977,-766.7071C954.3516,-763.383 946.0121,-760.2199 937.9992,-757.7494 850.6989,-730.8332 745.3175,-714.5629 683.4795,-706.5853"/>
<polygon fill="#b03a3a" stroke="#000000" points="683.5568,-703.0672 673.1964,-705.2835 682.6776,-710.0118 683.5568,-703.0672"/>
</g>
<!-- fledge_protocols -->
<g id="node22" class="node">
<title>fledge_protocols</title><style>.edge>path:hover{stroke-width:8}</style>
<ellipse fill="#e50505" stroke="#000000" cx="1198.9992" cy="-700.5361" rx="43.6818" ry="21.4286"/>
<text text-anchor="middle" x="1198.9992" y="-703.5361" font-family="Helvetica,sans-Serif" font-size="10.00" fill="#ffffff">fledge.</text>
<text text-anchor="middle" x="1198.9992" y="-692.5361" font-family="Helvetica,sans-Serif" font-size="10.00" fill="#ffffff">protocols</text>
</g>
<!-- fledge_protocols&#45;&gt;fledge_aggregator_aggregator -->
<g id="edge28" class="edge">
<title>fledge_protocols&#45;&gt;fledge_aggregator_aggregator</title><style>.edge>path:hover{stroke-width:8}</style>
<path fill="none" stroke="#000000" d="M1241.6099,-695.4511C1294.3777,-687.9379 1377.7668,-671.5632 1380.9992,-642.8229"/>
<path fill="none" stroke="#000000" d="M1380.9992,-642.8229C1384.8224,-608.831 1285.7673,-591.1377 1218.4275,-583.0641"/>
<polygon fill="#e50505" stroke="#000000" points="1218.6618,-579.5679 1208.3259,-581.8958 1217.8575,-586.5216 1218.6618,-579.5679"/>
</g>
<!-- fledge_protocols&#45;&gt;fledge_collaborator_collaborator -->
<g id="edge29" class="edge">
<title>fledge_protocols&#45;&gt;fledge_collaborator_collaborator</title><style>.edge>path:hover{stroke-width:8}</style>
<path fill="none" stroke="#000000" d="M1175.1522,-682.6211C1148.893,-662.894 1106.2414,-630.852 1074.8766,-607.2893"/>
<polygon fill="#e50505" stroke="#000000" points="1076.8558,-604.3986 1066.7583,-601.1905 1072.6513,-609.9952 1076.8558,-604.3986"/>
</g>
<!-- fledge_transport_grpc_client -->
<g id="node29" class="node">
<title>fledge_transport_grpc_client</title><style>.edge>path:hover{stroke-width:8}</style>
<ellipse fill="#b03a3a" stroke="#000000" cx="1418.9992" cy="-475.5706" rx="45.011" ry="36.5405"/>
<text text-anchor="middle" x="1418.9992" y="-489.5706" font-family="Helvetica,sans-Serif" font-size="10.00" fill="#ffffff">fledge.</text>
<text text-anchor="middle" x="1418.9992" y="-478.5706" font-family="Helvetica,sans-Serif" font-size="10.00" fill="#ffffff">transport.</text>
<text text-anchor="middle" x="1418.9992" y="-467.5706" font-family="Helvetica,sans-Serif" font-size="10.00" fill="#ffffff">grpc.</text>
<text text-anchor="middle" x="1418.9992" y="-456.5706" font-family="Helvetica,sans-Serif" font-size="10.00" fill="#ffffff">client</text>
</g>
<!-- fledge_protocols&#45;&gt;fledge_transport_grpc_client -->
<g id="edge30" class="edge">
<title>fledge_protocols&#45;&gt;fledge_transport_grpc_client</title><style>.edge>path:hover{stroke-width:8}</style>
<path fill="none" stroke="#000000" d="M1380.9992,-577.3316C1379.3489,-556.8422 1385.9929,-535.3526 1394.1674,-517.4291"/>
<polygon fill="#e50505" stroke="#000000" points="1397.3292,-518.9302 1398.5457,-508.4055 1391.0314,-515.8744 1397.3292,-518.9302"/>
</g>
<!-- fledge_transport_grpc_server -->
<g id="node30" class="node">
<title>fledge_transport_grpc_server</title><style>.edge>path:hover{stroke-width:8}</style>
<ellipse fill="#b03a3a" stroke="#000000" cx="1309.9992" cy="-475.5706" rx="45.011" ry="36.5405"/>
<text text-anchor="middle" x="1309.9992" y="-489.5706" font-family="Helvetica,sans-Serif" font-size="10.00" fill="#ffffff">fledge.</text>
<text text-anchor="middle" x="1309.9992" y="-478.5706" font-family="Helvetica,sans-Serif" font-size="10.00" fill="#ffffff">transport.</text>
<text text-anchor="middle" x="1309.9992" y="-467.5706" font-family="Helvetica,sans-Serif" font-size="10.00" fill="#ffffff">grpc.</text>
<text text-anchor="middle" x="1309.9992" y="-456.5706" font-family="Helvetica,sans-Serif" font-size="10.00" fill="#ffffff">server</text>
</g>
<!-- fledge_protocols&#45;&gt;fledge_transport_grpc_server -->
<g id="edge31" class="edge">
<title>fledge_protocols&#45;&gt;fledge_transport_grpc_server</title><style>.edge>path:hover{stroke-width:8}</style>
<path fill="none" stroke="#000000" d="M1380.9992,-642.8229C1384.2525,-613.898 1383.3362,-606.3449 1380.9992,-577.3316"/>
<path fill="none" stroke="#000000" d="M1380.9992,-577.3316C1378.9562,-551.9673 1363.6817,-528.3441 1347.8215,-510.2558"/>
<polygon fill="#e50505" stroke="#000000" points="1350.3665,-507.8526 1341.0252,-502.8535 1345.2102,-512.5868 1350.3665,-507.8526"/>
</g>
<!-- fledge_protocols_federation_pb2 -->
<g id="node23" class="node">
<title>fledge_protocols_federation_pb2</title><style>.edge>path:hover{stroke-width:8}</style>
<ellipse fill="#ce3b3b" stroke="#000000" cx="1253.9992" cy="-880.7235" rx="63.7795" ry="28.9828"/>
<text text-anchor="middle" x="1253.9992" y="-889.2235" font-family="Helvetica,sans-Serif" font-size="10.00" fill="#ffffff">fledge.</text>
<text text-anchor="middle" x="1253.9992" y="-878.2235" font-family="Helvetica,sans-Serif" font-size="10.00" fill="#ffffff">protocols.</text>
<text text-anchor="middle" x="1253.9992" y="-867.2235" font-family="Helvetica,sans-Serif" font-size="10.00" fill="#ffffff">federation_pb2</text>
</g>
<!-- fledge_protocols_federation_pb2&#45;&gt;fledge_protocols -->
<g id="edge32" class="edge">
<title>fledge_protocols_federation_pb2&#45;&gt;fledge_protocols</title><style>.edge>path:hover{stroke-width:8}</style>
<path fill="none" stroke="#000000" d="M1235.8428,-852.9152C1229.3031,-841.7563 1222.4475,-828.5243 1217.9992,-815.7321 1208.4734,-788.3383 1203.6605,-755.5794 1201.268,-732.0108"/>
<polygon fill="#ce3b3b" stroke="#000000" points="1204.7372,-731.5159 1200.3308,-721.8809 1197.767,-732.1609 1204.7372,-731.5159"/>
</g>
<!-- fledge_protocols_federation_pb2_grpc -->
<g id="node24" class="node">
<title>fledge_protocols_federation_pb2_grpc</title><style>.edge>path:hover{stroke-width:8}</style>
<ellipse fill="#a83838" stroke="#000000" cx="1308.9992" cy="-786.7407" rx="82.0488" ry="28.9828"/>
<text text-anchor="middle" x="1308.9992" y="-795.2407" font-family="Helvetica,sans-Serif" font-size="10.00" fill="#ffffff">fledge.</text>
<text text-anchor="middle" x="1308.9992" y="-784.2407" font-family="Helvetica,sans-Serif" font-size="10.00" fill="#ffffff">protocols.</text>
<text text-anchor="middle" x="1308.9992" y="-773.2407" font-family="Helvetica,sans-Serif" font-size="10.00" fill="#ffffff">federation_pb2_grpc</text>
</g>
<!-- fledge_protocols_federation_pb2&#45;&gt;fledge_protocols_federation_pb2_grpc -->
<g id="edge33" class="edge">
<title>fledge_protocols_federation_pb2&#45;&gt;fledge_protocols_federation_pb2_grpc</title><style>.edge>path:hover{stroke-width:8}</style>
<path fill="none" stroke="#000000" d="M1270.5011,-852.5256C1275.7284,-843.5932 1281.5905,-833.5762 1287.1335,-824.1045"/>
<polygon fill="#ce3b3b" stroke="#000000" points="1290.2889,-825.6421 1292.319,-815.2436 1284.2474,-822.1065 1290.2889,-825.6421"/>
</g>
<!-- fledge_protocols_federation_pb2_grpc&#45;&gt;fledge_protocols -->
<g id="edge34" class="edge">
<title>fledge_protocols_federation_pb2_grpc&#45;&gt;fledge_protocols</title><style>.edge>path:hover{stroke-width:8}</style>
<path fill="none" stroke="#000000" d="M1275.0981,-760.1731C1260.7447,-748.9247 1244.1318,-735.9055 1230.0969,-724.9067"/>
<polygon fill="#a83838" stroke="#000000" points="1232.1977,-722.1064 1222.1678,-718.6929 1227.8799,-727.616 1232.1977,-722.1064"/>
</g>
<!-- fledge_protocols_orchestration_pb2_grpc -->
<g id="node25" class="node">
<title>fledge_protocols_orchestration_pb2_grpc</title><style>.edge>path:hover{stroke-width:8}</style>
<ellipse fill="#b34c4c" stroke="#000000" cx="1539.9992" cy="-786.7407" rx="92.7622" ry="28.9828"/>
<text text-anchor="middle" x="1539.9992" y="-795.2407" font-family="Helvetica,sans-Serif" font-size="10.00" fill="#ffffff">fledge.</text>
<text text-anchor="middle" x="1539.9992" y="-784.2407" font-family="Helvetica,sans-Serif" font-size="10.00" fill="#ffffff">protocols.</text>
<text text-anchor="middle" x="1539.9992" y="-773.2407" font-family="Helvetica,sans-Serif" font-size="10.00" fill="#ffffff">orchestration_pb2_grpc</text>
</g>
<!-- fledge_protocols_utils -->
<g id="node26" class="node">
<title>fledge_protocols_utils</title><style>.edge>path:hover{stroke-width:8}</style>
<ellipse fill="#b03a3a" stroke="#000000" cx="1124.9992" cy="-786.7407" rx="45.9239" ry="28.9828"/>
<text text-anchor="middle" x="1124.9992" y="-795.2407" font-family="Helvetica,sans-Serif" font-size="10.00" fill="#ffffff">fledge.</text>
<text text-anchor="middle" x="1124.9992" y="-784.2407" font-family="Helvetica,sans-Serif" font-size="10.00" fill="#ffffff">protocols.</text>
<text text-anchor="middle" x="1124.9992" y="-773.2407" font-family="Helvetica,sans-Serif" font-size="10.00" fill="#ffffff">utils</text>
</g>
<!-- fledge_protocols_utils&#45;&gt;fledge_protocols -->
<g id="edge35" class="edge">
<title>fledge_protocols_utils&#45;&gt;fledge_protocols</title><style>.edge>path:hover{stroke-width:8}</style>
<path fill="none" stroke="#000000" d="M1147.2017,-760.8765C1156.09,-750.5222 1166.3424,-738.5789 1175.3685,-728.0643"/>
<polygon fill="#b03a3a" stroke="#000000" points="1178.131,-730.2196 1181.9888,-720.3521 1172.8195,-725.6601 1178.131,-730.2196"/>
</g>
<!-- fledge_transport -->
<g id="node27" class="node">
<title>fledge_transport</title><style>.edge>path:hover{stroke-width:8}</style>
<ellipse fill="#c04040" stroke="#000000" cx="1308.9992" cy="-287.6051" rx="43.2674" ry="21.4286"/>
<text text-anchor="middle" x="1308.9992" y="-290.6051" font-family="Helvetica,sans-Serif" font-size="10.00" fill="#ffffff">fledge.</text>
<text text-anchor="middle" x="1308.9992" y="-279.6051" font-family="Helvetica,sans-Serif" font-size="10.00" fill="#ffffff">transport</text>
</g>
<!-- fledge_transport&#45;&gt;fledge_federated_flplan -->
<g id="edge36" class="edge">
<title>fledge_transport&#45;&gt;fledge_federated_flplan</title><style>.edge>path:hover{stroke-width:8}</style>
<path fill="none" stroke="#000000" d="M1284.7714,-269.9452C1266.1628,-254.4173 1242.7087,-229.8884 1236.9992,-201.4005"/>
</g>
<!-- fledge_transport_grpc -->
<g id="node28" class="node">
<title>fledge_transport_grpc</title><style>.edge>path:hover{stroke-width:8}</style>
<ellipse fill="#b83d3d" stroke="#000000" cx="1309.9992" cy="-373.8097" rx="45.011" ry="28.9828"/>
<text text-anchor="middle" x="1309.9992" y="-382.3097" font-family="Helvetica,sans-Serif" font-size="10.00" fill="#ffffff">fledge.</text>
<text text-anchor="middle" x="1309.9992" y="-371.3097" font-family="Helvetica,sans-Serif" font-size="10.00" fill="#ffffff">transport.</text>
<text text-anchor="middle" x="1309.9992" y="-360.3097" font-family="Helvetica,sans-Serif" font-size="10.00" fill="#ffffff">grpc</text>
</g>
<!-- fledge_transport_grpc&#45;&gt;fledge_transport -->
<g id="edge37" class="edge">
<title>fledge_transport_grpc&#45;&gt;fledge_transport</title><style>.edge>path:hover{stroke-width:8}</style>
<path fill="none" stroke="#000000" d="M1309.6607,-344.6248C1309.5651,-336.3822 1309.4606,-327.3789 1309.3636,-319.0118"/>
<polygon fill="#b83d3d" stroke="#000000" points="1312.8616,-318.8175 1309.2458,-308.8588 1305.8621,-318.8988 1312.8616,-318.8175"/>
</g>
<!-- fledge_transport_grpc_client&#45;&gt;fledge_transport_grpc -->
<g id="edge38" class="edge">
<title>fledge_transport_grpc_client&#45;&gt;fledge_transport_grpc</title><style>.edge>path:hover{stroke-width:8}</style>
<path fill="none" stroke="#000000" d="M1389.2145,-447.764C1374.9366,-434.4343 1357.7873,-418.424 1343.1021,-404.7141"/>
<polygon fill="#b03a3a" stroke="#000000" points="1345.3736,-402.0465 1335.6755,-397.7807 1340.5966,-407.1633 1345.3736,-402.0465"/>
</g>
<!-- fledge_transport_grpc_server&#45;&gt;fledge_transport_grpc -->
<g id="edge39" class="edge">
<title>fledge_transport_grpc_server&#45;&gt;fledge_transport_grpc</title><style>.edge>path:hover{stroke-width:8}</style>
<path fill="none" stroke="#000000" d="M1309.9992,-438.5447C1309.9992,-430.3136 1309.9992,-421.5587 1309.9992,-413.2352"/>
<polygon fill="#b03a3a" stroke="#000000" points="1313.4993,-412.9948 1309.9992,-402.9948 1306.4993,-412.9948 1313.4993,-412.9948"/>
</g>
<!-- fledge_utilities -->
<g id="node31" class="node">
<title>fledge_utilities</title><style>.edge>path:hover{stroke-width:8}</style>
<ellipse fill="#df0b0b" stroke="#000000" cx="532.9992" cy="-966.9281" rx="37.4533" ry="21.4286"/>
<text text-anchor="middle" x="532.9992" y="-969.9281" font-family="Helvetica,sans-Serif" font-size="10.00" fill="#ffffff">fledge.</text>
<text text-anchor="middle" x="532.9992" y="-958.9281" font-family="Helvetica,sans-Serif" font-size="10.00" fill="#ffffff">utilities</text>
</g>
<!-- fledge_utilities&#45;&gt;fledge_aggregator_aggregator -->
<g id="edge40" class="edge">
<title>fledge_utilities&#45;&gt;fledge_aggregator_aggregator</title><style>.edge>path:hover{stroke-width:8}</style>
<path fill="none" stroke="#000000" d="M99.9992,-880.7235C77.2718,-860.9974 113.111,-845.2445 118.9992,-815.7321 134.1261,-739.9153 125.2902,-719.0823 137.9992,-642.8229"/>
</g>
<!-- fledge_utilities&#45;&gt;fledge_collaborator_collaborator -->
<g id="edge41" class="edge">
<title>fledge_utilities&#45;&gt;fledge_collaborator_collaborator</title><style>.edge>path:hover{stroke-width:8}</style>
<path fill="none" stroke="#000000" d="M495.8659,-963.9895C402.4516,-955.9167 160.8169,-930.6109 99.9992,-880.7235"/>
<path fill="none" stroke="#000000" d="M99.9992,-880.7235C59.8773,-847.8123 27.4326,-861.5134 2.9992,-815.7321 -2.5273,-805.3769 .8453,-686.7608 4.9992,-679.3229 19.4851,-653.385 57.0012,-672.2616 60.9992,-642.8229"/>
<path fill="none" stroke="#000000" d="M60.9992,-642.8229C66.883,-597.5301 753.6578,-582.0761 970.3057,-578.3261"/>
<polygon fill="#df0b0b" stroke="#000000" points="970.6278,-581.8212 980.5666,-578.1512 970.5084,-574.8222 970.6278,-581.8212"/>
</g>
<!-- fledge_utilities&#45;&gt;fledge_databases_tensor_db -->
<g id="edge42" class="edge">
<title>fledge_utilities&#45;&gt;fledge_databases_tensor_db</title><style>.edge>path:hover{stroke-width:8}</style>
<path fill="none" stroke="#000000" d="M99.9992,-880.7235C83.2507,-866.985 73.5991,-844.8443 68.0883,-825.5029"/>
<polygon fill="#df0b0b" stroke="#000000" points="71.4486,-824.5164 65.5683,-815.7031 64.6691,-826.2597 71.4486,-824.5164"/>
</g>
<!-- fledge_utilities&#45;&gt;fledge_pipelines_tensor_codec -->
<g id="edge43" class="edge">
<title>fledge_utilities&#45;&gt;fledge_pipelines_tensor_codec</title><style>.edge>path:hover{stroke-width:8}</style>
<path fill="none" stroke="#000000" d="M570.7219,-966.3971C679.2777,-964.0296 988.9027,-951.1157 1054.9992,-880.7235"/>
<path fill="none" stroke="#000000" d="M1054.9992,-880.7235C1071.7143,-862.9221 1057.7874,-838.6013 1040.2946,-819.1607"/>
<polygon fill="#df0b0b" stroke="#000000" points="1042.6307,-816.5383 1033.2033,-811.7035 1037.5581,-821.362 1042.6307,-816.5383"/>
</g>
<!-- fledge_utilities&#45;&gt;fledge_protocols_utils -->
<g id="edge44" class="edge">
<title>fledge_utilities&#45;&gt;fledge_protocols_utils</title><style>.edge>path:hover{stroke-width:8}</style>
<path fill="none" stroke="#000000" d="M1054.9992,-880.7235C1071.8741,-862.7519 1088.457,-840.7374 1101.2437,-822.5336"/>
<polygon fill="#df0b0b" stroke="#000000" points="1104.3814,-824.1506 1107.2005,-813.9377 1098.6279,-820.1635 1104.3814,-824.1506"/>
</g>
<!-- fledge_utilities_checks -->
<g id="node32" class="node">
<title>fledge_utilities_checks</title><style>.edge>path:hover{stroke-width:8}</style>
<ellipse fill="#c24747" stroke="#000000" cx="629.9992" cy="-1053.1326" rx="39.6962" ry="28.9828"/>
<text text-anchor="middle" x="629.9992" y="-1061.6326" font-family="Helvetica,sans-Serif" font-size="10.00" fill="#ffffff">fledge.</text>
<text text-anchor="middle" x="629.9992" y="-1050.6326" font-family="Helvetica,sans-Serif" font-size="10.00" fill="#ffffff">utilities.</text>
<text text-anchor="middle" x="629.9992" y="-1039.6326" font-family="Helvetica,sans-Serif" font-size="10.00" fill="#ffffff">checks</text>
</g>
<!-- fledge_utilities_checks&#45;&gt;fledge_utilities -->
<g id="edge45" class="edge">
<title>fledge_utilities_checks&#45;&gt;fledge_utilities</title><style>.edge>path:hover{stroke-width:8}</style>
<path fill="none" stroke="#000000" d="M604.7669,-1030.7084C591.3464,-1018.7816 574.811,-1004.0864 560.9958,-991.8088"/>
<polygon fill="#c24747" stroke="#000000" points="563.02,-988.9253 553.2202,-984.8985 558.3699,-994.1576 563.02,-988.9253"/>
</g>
<!-- fledge_utilities_types -->
<g id="node33" class="node">
<title>fledge_utilities_types</title><style>.edge>path:hover{stroke-width:8}</style>
<ellipse fill="#c24747" stroke="#000000" cx="435.9992" cy="-1053.1326" rx="39.6962" ry="28.9828"/>
<text text-anchor="middle" x="435.9992" y="-1061.6326" font-family="Helvetica,sans-Serif" font-size="10.00" fill="#ffffff">fledge.</text>
<text text-anchor="middle" x="435.9992" y="-1050.6326" font-family="Helvetica,sans-Serif" font-size="10.00" fill="#ffffff">utilities.</text>
<text text-anchor="middle" x="435.9992" y="-1039.6326" font-family="Helvetica,sans-Serif" font-size="10.00" fill="#ffffff">types</text>
</g>
<!-- fledge_utilities_types&#45;&gt;fledge_utilities -->
<g id="edge46" class="edge">
<title>fledge_utilities_types&#45;&gt;fledge_utilities</title><style>.edge>path:hover{stroke-width:8}</style>
<path fill="none" stroke="#000000" d="M461.2316,-1030.7084C474.6521,-1018.7816 491.1875,-1004.0864 505.0026,-991.8088"/>
<polygon fill="#c24747" stroke="#000000" points="507.6286,-994.1576 512.7783,-984.8985 502.9785,-988.9253 507.6286,-994.1576"/>
</g>
<!-- fledge_utilities_utils -->
<g id="node34" class="node">
<title>fledge_utilities_utils</title><style>.edge>path:hover{stroke-width:8}</style>
<ellipse fill="#c24747" stroke="#000000" cx="532.9992" cy="-1053.1326" rx="39.6962" ry="28.9828"/>
<text text-anchor="middle" x="532.9992" y="-1061.6326" font-family="Helvetica,sans-Serif" font-size="10.00" fill="#ffffff">fledge.</text>
<text text-anchor="middle" x="532.9992" y="-1050.6326" font-family="Helvetica,sans-Serif" font-size="10.00" fill="#ffffff">utilities.</text>
<text text-anchor="middle" x="532.9992" y="-1039.6326" font-family="Helvetica,sans-Serif" font-size="10.00" fill="#ffffff">utils</text>
</g>
<!-- fledge_utilities_utils&#45;&gt;fledge_utilities -->
<g id="edge47" class="edge">
<title>fledge_utilities_utils&#45;&gt;fledge_utilities</title><style>.edge>path:hover{stroke-width:8}</style>
<path fill="none" stroke="#000000" d="M532.9992,-1023.9477C532.9992,-1015.7051 532.9992,-1006.7019 532.9992,-998.3348"/>
<polygon fill="#c24747" stroke="#000000" points="536.4993,-998.1817 532.9992,-988.1818 529.4993,-998.1818 536.4993,-998.1817"/>
</g>
<!-- grpc -->
<g id="node35" class="node">
<title>grpc</title><style>.edge>path:hover{stroke-width:8}</style>
<polygon fill="#4c9503" stroke="#000000" points="1445.9992,-1071.1326 1442.9992,-1075.1326 1421.9992,-1075.1326 1418.9992,-1071.1326 1391.9992,-1071.1326 1391.9992,-1035.1326 1445.9992,-1035.1326 1445.9992,-1071.1326"/>
<text text-anchor="middle" x="1418.9992" y="-1050.6326" font-family="Helvetica,sans-Serif" font-size="10.00" fill="#ffffff">grpc</text>
</g>
<!-- grpc&#45;&gt;fledge_protocols_federation_pb2_grpc -->
<g id="edge48" class="edge">
<title>grpc&#45;&gt;fledge_protocols_federation_pb2_grpc</title><style>.edge>path:hover{stroke-width:8}</style>
<path fill="none" stroke="#000000" d="M1418.767,-1035.0102C1418.4164,-1003.5939 1417.9022,-936.9852 1418.9992,-880.7235"/>
<path fill="none" stroke="#000000" d="M1418.9992,-880.7235C1419.5709,-851.4068 1396.7481,-829.2845 1371.7478,-813.8914"/>
<polygon fill="#4c9503" stroke="#000000" points="1373.2546,-810.7191 1362.8489,-808.7265 1369.7408,-816.7733 1373.2546,-810.7191"/>
</g>
<!-- grpc&#45;&gt;fledge_protocols_orchestration_pb2_grpc -->
<g id="edge49" class="edge">
<title>grpc&#45;&gt;fledge_protocols_orchestration_pb2_grpc</title><style>.edge>path:hover{stroke-width:8}</style>
<path fill="none" stroke="#000000" d="M1418.9992,-880.7235C1419.5886,-850.4986 1443.5032,-828.5871 1469.9163,-813.5646"/>
<polygon fill="#4c9503" stroke="#000000" points="1471.7765,-816.5387 1478.9394,-808.7321 1468.4716,-810.368 1471.7765,-816.5387"/>
</g>
<!-- grpc&#45;&gt;fledge_transport_grpc_client -->
<g id="edge50" class="edge">
<title>grpc&#45;&gt;fledge_transport_grpc_client</title><style>.edge>path:hover{stroke-width:8}</style>
<path fill="none" stroke="#000000" d="M1418.9992,-577.3316C1414.6196,-559.8773 1413.7251,-540.2025 1414.2358,-522.8374"/>
<polygon fill="#4c9503" stroke="#000000" points="1417.7543,-522.5142 1414.7168,-512.3642 1410.7616,-522.193 1417.7543,-522.5142"/>
</g>
<!-- grpc&#45;&gt;fledge_transport_grpc_server -->
<g id="edge51" class="edge">
<title>grpc&#45;&gt;fledge_transport_grpc_server</title><style>.edge>path:hover{stroke-width:8}</style>
<path fill="none" stroke="#000000" d="M1418.9992,-880.7235C1421.6281,-745.9083 1451.8167,-708.1179 1418.9992,-577.3316"/>
<path fill="none" stroke="#000000" d="M1418.9992,-577.3316C1412.7642,-559.9174 1379.5289,-530.2385 1351.3782,-507.4123"/>
<polygon fill="#4c9503" stroke="#000000" points="1353.2123,-504.3968 1343.2211,-500.8714 1348.8331,-509.8579 1353.2123,-504.3968"/>
</g>
<!-- grpctools -->
<g id="node36" class="node">
<title>grpctools</title><style>.edge>path:hover{stroke-width:8}</style>
<polygon fill="#53b6b6" stroke="#000000" points="1419.9992,-1157.3372 1416.9992,-1161.3372 1395.9992,-1161.3372 1392.9992,-1157.3372 1357.9992,-1157.3372 1357.9992,-1121.3372 1419.9992,-1121.3372 1419.9992,-1157.3372"/>
<text text-anchor="middle" x="1388.9992" y="-1136.8372" font-family="Helvetica,sans-Serif" font-size="10.00" fill="#000000">grpctools</text>
</g>
<!-- grpctools&#45;&gt;grpc -->
<g id="edge52" class="edge">
<title>grpctools&#45;&gt;grpc</title><style>.edge>path:hover{stroke-width:8}</style>
<path fill="none" stroke="#000000" d="M1395.3615,-1121.0555C1399.4184,-1109.3978 1404.7542,-1094.0655 1409.3295,-1080.9186"/>
<polygon fill="#53b6b6" stroke="#000000" points="1412.6649,-1081.9829 1412.6462,-1071.3881 1406.0538,-1079.6821 1412.6649,-1081.9829"/>
</g>
<!-- six -->
<g id="node37" class="node">
<title>six</title><style>.edge>path:hover{stroke-width:8}</style>
<polygon fill="#852fdb" stroke="#000000" points="1474.9992,-1243.5418 1471.9992,-1247.5418 1450.9992,-1247.5418 1447.9992,-1243.5418 1420.9992,-1243.5418 1420.9992,-1207.5418 1474.9992,-1207.5418 1474.9992,-1243.5418"/>
<text text-anchor="middle" x="1447.9992" y="-1223.0418" font-family="Helvetica,sans-Serif" font-size="10.00" fill="#ffffff">six</text>
</g>
<!-- six&#45;&gt;grpc -->
<g id="edge53" class="edge">
<title>six&#45;&gt;grpc</title><style>.edge>path:hover{stroke-width:8}</style>
<path fill="none" stroke="#000000" d="M1444.9505,-1207.4169C1439.903,-1177.4086 1429.7726,-1117.1819 1423.7706,-1081.4989"/>
<polygon fill="#852fdb" stroke="#000000" points="1427.1609,-1080.5543 1422.0506,-1071.2734 1420.2579,-1081.7155 1427.1609,-1080.5543"/>
</g>
</g>
</svg>
