<?xml version="1.0" encoding="UTF-8" standalone="no"?>
<!DOCTYPE svg PUBLIC "-//W3C//DTD SVG 1.1//EN"
 "http://www.w3.org/Graphics/SVG/1.1/DTD/svg11.dtd">
<!-- Generated by graphviz version 2.40.1 (20161225.0304)
 -->
<!-- Title: G Pages: 1 -->
<svg width="629pt" height="1190pt"
 viewBox="0.00 0.00 628.85 1189.99" xmlns="http://www.w3.org/2000/svg" xmlns:xlink="http://www.w3.org/1999/xlink">
<g id="graph0" class="graph" transform="scale(1 1) rotate(0) translate(4 1185.9941)">
<title>G</title><style>.edge>path:hover{stroke-width:8}</style>
<polygon fill="#ffffff" stroke="transparent" points="-4,4 -4,-1185.9941 624.8528,-1185.9941 624.8528,4 -4,4"/>
<!-- fledge -->
<g id="node1" class="node">
<title>fledge</title><style>.edge>path:hover{stroke-width:8}</style>
<ellipse fill="#f91010" stroke="#000000" cx="465.2548" cy="-136.6396" rx="27.8353" ry="18"/>
<text text-anchor="middle" x="465.2548" y="-134.1396" font-family="Helvetica,sans-Serif" font-size="10.00" fill="#ffffff">fledge</text>
</g>
<!-- scripts_plan -->
<g id="node24" class="node">
<title>scripts_plan</title><style>.edge>path:hover{stroke-width:8}</style>
<ellipse fill="#43439d" stroke="#000000" cx="465.2548" cy="-21.2132" rx="42.9448" ry="18"/>
<text text-anchor="middle" x="465.2548" y="-18.7132" font-family="Helvetica,sans-Serif" font-size="10.00" fill="#ffffff">scripts.plan</text>
</g>
<!-- fledge&#45;&gt;scripts_plan -->
<g id="edge1" class="edge">
<title>fledge&#45;&gt;scripts_plan</title><style>.edge>path:hover{stroke-width:8}</style>
<path fill="none" stroke="#000000" d="M465.2548,-78.9264C461.8668,-69.701 461.0749,-59.0726 461.3873,-49.4705"/>
<polygon fill="#f91010" stroke="#000000" points="464.8999,-49.4213 462.1295,-39.1951 457.9181,-48.9169 464.8999,-49.4213"/>
</g>
<!-- scripts_service -->
<g id="node25" class="node">
<title>scripts_service</title><style>.edge>path:hover{stroke-width:8}</style>
<ellipse fill="#404096" stroke="#000000" cx="367.2548" cy="-21.2132" rx="36.5405" ry="21.4286"/>
<text text-anchor="middle" x="367.2548" y="-24.2132" font-family="Helvetica,sans-Serif" font-size="10.00" fill="#ffffff">scripts.</text>
<text text-anchor="middle" x="367.2548" y="-13.2132" font-family="Helvetica,sans-Serif" font-size="10.00" fill="#ffffff">service</text>
</g>
<!-- fledge&#45;&gt;scripts_service -->
<g id="edge2" class="edge">
<title>fledge&#45;&gt;scripts_service</title><style>.edge>path:hover{stroke-width:8}</style>
<path fill="none" stroke="#000000" d="M468.3801,-118.6577C469.663,-106.9789 469.918,-91.6237 465.2548,-78.9264"/>
<path fill="none" stroke="#000000" d="M465.2548,-78.9264C462.7583,-72.1287 430.9402,-54.1691 404.2264,-40.0729"/>
<polygon fill="#f91010" stroke="#000000" points="405.5301,-36.805 395.0467,-35.2726 402.2864,-43.0081 405.5301,-36.805"/>
</g>
<!-- fledge_aggregator -->
<g id="node2" class="node">
<title>fledge_aggregator</title><style>.edge>path:hover{stroke-width:8}</style>
<ellipse fill="#c04040" stroke="#000000" cx="190.2548" cy="-403.0315" rx="49.4949" ry="21.4286"/>
<text text-anchor="middle" x="190.2548" y="-406.0315" font-family="Helvetica,sans-Serif" font-size="10.00" fill="#ffffff">fledge.</text>
<text text-anchor="middle" x="190.2548" y="-395.0315" font-family="Helvetica,sans-Serif" font-size="10.00" fill="#ffffff">aggregator</text>
</g>
<!-- fledge_federated_flplan -->
<g id="node9" class="node">
<title>fledge_federated_flplan</title><style>.edge>path:hover{stroke-width:8}</style>
<ellipse fill="#8f3d3d" stroke="#000000" cx="334.2548" cy="-222.8442" rx="47.2526" ry="28.9828"/>
<text text-anchor="middle" x="334.2548" y="-231.3442" font-family="Helvetica,sans-Serif" font-size="10.00" fill="#ffffff">fledge.</text>
<text text-anchor="middle" x="334.2548" y="-220.3442" font-family="Helvetica,sans-Serif" font-size="10.00" fill="#ffffff">federated.</text>
<text text-anchor="middle" x="334.2548" y="-209.3442" font-family="Helvetica,sans-Serif" font-size="10.00" fill="#ffffff">flplan</text>
</g>
<!-- fledge_aggregator&#45;&gt;fledge_federated_flplan -->
<g id="edge3" class="edge">
<title>fledge_aggregator&#45;&gt;fledge_federated_flplan</title><style>.edge>path:hover{stroke-width:8}</style>
<path fill="none" stroke="#000000" d="M232.3202,-391.5567C259.8465,-382.488 295.3717,-367.6732 321.2548,-345.8183 333.0256,-335.8794 333.2407,-330.5432 340.2548,-316.8269"/>
</g>
<!-- fledge_aggregator&#45;&gt;scripts_service -->
<g id="edge4" class="edge">
<title>fledge_aggregator&#45;&gt;scripts_service</title><style>.edge>path:hover{stroke-width:8}</style>
<path fill="none" stroke="#000000" d="M186.9576,-381.6535C184.9958,-363.9134 183.9636,-338.2205 190.2548,-316.8269"/>
</g>
<!-- fledge_aggregator_aggregator -->
<g id="node3" class="node">
<title>fledge_aggregator_aggregator</title><style>.edge>path:hover{stroke-width:8}</style>
<ellipse fill="#964040" stroke="#000000" cx="228.2548" cy="-489.2361" rx="50.8235" ry="28.9828"/>
<text text-anchor="middle" x="228.2548" y="-497.7361" font-family="Helvetica,sans-Serif" font-size="10.00" fill="#ffffff">fledge.</text>
<text text-anchor="middle" x="228.2548" y="-486.7361" font-family="Helvetica,sans-Serif" font-size="10.00" fill="#ffffff">aggregator.</text>
<text text-anchor="middle" x="228.2548" y="-475.7361" font-family="Helvetica,sans-Serif" font-size="10.00" fill="#ffffff">aggregator</text>
</g>
<!-- fledge_aggregator_aggregator&#45;&gt;fledge_aggregator -->
<g id="edge5" class="edge">
<title>fledge_aggregator_aggregator&#45;&gt;fledge_aggregator</title><style>.edge>path:hover{stroke-width:8}</style>
<path fill="none" stroke="#000000" d="M215.8122,-461.0095C211.9019,-452.1387 207.5691,-442.3097 203.5989,-433.3031"/>
<polygon fill="#964040" stroke="#000000" points="206.7066,-431.6757 199.4702,-423.9371 200.3013,-434.4993 206.7066,-431.6757"/>
</g>
<!-- fledge_collaborator -->
<g id="node4" class="node">
<title>fledge_collaborator</title><style>.edge>path:hover{stroke-width:8}</style>
<ellipse fill="#c04040" stroke="#000000" cx="433.2548" cy="-403.0315" rx="53.066" ry="21.4286"/>
<text text-anchor="middle" x="433.2548" y="-406.0315" font-family="Helvetica,sans-Serif" font-size="10.00" fill="#ffffff">fledge.</text>
<text text-anchor="middle" x="433.2548" y="-395.0315" font-family="Helvetica,sans-Serif" font-size="10.00" fill="#ffffff">collaborator</text>
</g>
<!-- fledge_collaborator&#45;&gt;fledge_federated_flplan -->
<g id="edge6" class="edge">
<title>fledge_collaborator&#45;&gt;fledge_federated_flplan</title><style>.edge>path:hover{stroke-width:8}</style>
<path fill="none" stroke="#000000" d="M427.9713,-381.5805C423.4817,-364.0194 416.6093,-338.6112 409.2548,-316.8269"/>
<path fill="none" stroke="#000000" d="M409.2548,-316.8269C401.264,-293.1578 384.3546,-271.0801 368.6111,-254.2783"/>
<polygon fill="#c04040" stroke="#000000" points="370.9708,-251.684 361.4959,-246.943 365.9462,-256.5578 370.9708,-251.684"/>
</g>
<!-- fledge_collaborator&#45;&gt;scripts_service -->
<g id="edge7" class="edge">
<title>fledge_collaborator&#45;&gt;scripts_service</title><style>.edge>path:hover{stroke-width:8}</style>
<path fill="none" stroke="#000000" d="M409.2548,-316.8269C375.1618,-215.8426 404.7959,-182.811 383.2548,-78.4264 381.4765,-69.8089 379.1065,-60.5811 376.7367,-52.1067"/>
<polygon fill="#c04040" stroke="#000000" points="380.0231,-50.8716 373.886,-42.2353 373.298,-52.8138 380.0231,-50.8716"/>
</g>
<!-- fledge_collaborator_collaborator -->
<g id="node5" class="node">
<title>fledge_collaborator_collaborator</title><style>.edge>path:hover{stroke-width:8}</style>
<ellipse fill="#964040" stroke="#000000" cx="433.2548" cy="-489.2361" rx="54.3945" ry="28.9828"/>
<text text-anchor="middle" x="433.2548" y="-497.7361" font-family="Helvetica,sans-Serif" font-size="10.00" fill="#ffffff">fledge.</text>
<text text-anchor="middle" x="433.2548" y="-486.7361" font-family="Helvetica,sans-Serif" font-size="10.00" fill="#ffffff">collaborator.</text>
<text text-anchor="middle" x="433.2548" y="-475.7361" font-family="Helvetica,sans-Serif" font-size="10.00" fill="#ffffff">collaborator</text>
</g>
<!-- fledge_collaborator_collaborator&#45;&gt;fledge_collaborator -->
<g id="edge8" class="edge">
<title>fledge_collaborator_collaborator&#45;&gt;fledge_collaborator</title><style>.edge>path:hover{stroke-width:8}</style>
<path fill="none" stroke="#000000" d="M433.2548,-460.0512C433.2548,-451.8086 433.2548,-442.8053 433.2548,-434.4382"/>
<polygon fill="#964040" stroke="#000000" points="436.7549,-434.2852 433.2548,-424.2852 429.7549,-434.2853 436.7549,-434.2852"/>
</g>
<!-- fledge_databases -->
<g id="node6" class="node">
<title>fledge_databases</title><style>.edge>path:hover{stroke-width:8}</style>
<ellipse fill="#c24747" stroke="#000000" cx="408.2548" cy="-684.9798" rx="47.2526" ry="21.4286"/>
<text text-anchor="middle" x="408.2548" y="-687.9798" font-family="Helvetica,sans-Serif" font-size="10.00" fill="#ffffff">fledge.</text>
<text text-anchor="middle" x="408.2548" y="-676.9798" font-family="Helvetica,sans-Serif" font-size="10.00" fill="#ffffff">databases</text>
</g>
<!-- fledge_databases&#45;&gt;fledge_aggregator_aggregator -->
<g id="edge9" class="edge">
<title>fledge_databases&#45;&gt;fledge_aggregator_aggregator</title><style>.edge>path:hover{stroke-width:8}</style>
<path fill="none" stroke="#000000" d="M404.1913,-663.4986C397.891,-635.3556 383.3344,-585.876 354.2548,-554.2275 334.7627,-533.0134 306.7551,-517.612 282.0935,-507.1426"/>
<polygon fill="#c24747" stroke="#000000" points="283.4118,-503.9004 272.8302,-503.3698 280.7713,-510.3834 283.4118,-503.9004"/>
</g>
<!-- fledge_databases&#45;&gt;fledge_collaborator_collaborator -->
<g id="edge10" class="edge">
<title>fledge_databases&#45;&gt;fledge_collaborator_collaborator</title><style>.edge>path:hover{stroke-width:8}</style>
<path fill="none" stroke="#000000" d="M434.3286,-667.0804C455.505,-650.2499 482.0613,-622.9136 483.2548,-590.997"/>
</g>
<!-- fledge_federated -->
<g id="node7" class="node">
<title>fledge_federated</title><style>.edge>path:hover{stroke-width:8}</style>
<ellipse fill="#b83d3d" stroke="#000000" cx="334.2548" cy="-136.6396" rx="45.011" ry="21.4286"/>
<text text-anchor="middle" x="334.2548" y="-139.6396" font-family="Helvetica,sans-Serif" font-size="10.00" fill="#ffffff">fledge.</text>
<text text-anchor="middle" x="334.2548" y="-128.6396" font-family="Helvetica,sans-Serif" font-size="10.00" fill="#ffffff">federated</text>
</g>
<!-- fledge_federated&#45;&gt;scripts_plan -->
<g id="edge11" class="edge">
<title>fledge_federated&#45;&gt;scripts_plan</title><style>.edge>path:hover{stroke-width:8}</style>
<path fill="none" stroke="#000000" d="M369.2548,-78.9264C376.9731,-67.9837 404.1699,-52.112 427.6541,-39.7815"/>
<polygon fill="#b83d3d" stroke="#000000" points="429.4786,-42.7785 436.7557,-35.0781 426.265,-36.5597 429.4786,-42.7785"/>
</g>
<!-- fledge_federated&#45;&gt;scripts_service -->
<g id="edge12" class="edge">
<title>fledge_federated&#45;&gt;scripts_service</title><style>.edge>path:hover{stroke-width:8}</style>
<path fill="none" stroke="#000000" d="M345.8948,-115.9017C352.4063,-104.7122 360.8797,-90.8005 369.2548,-78.9264"/>
<path fill="none" stroke="#000000" d="M369.2548,-78.9264C374.6289,-71.3071 375.8345,-61.6071 375.1909,-52.3437"/>
<polygon fill="#b83d3d" stroke="#000000" points="378.6269,-51.6373 373.8023,-42.2047 371.6917,-52.5872 378.6269,-51.6373"/>
</g>
<!-- fledge_federated_config -->
<g id="node8" class="node">
<title>fledge_federated_config</title><style>.edge>path:hover{stroke-width:8}</style>
<ellipse fill="#c24747" stroke="#000000" cx="265.2548" cy="-316.8269" rx="47.2526" ry="28.9828"/>
<text text-anchor="middle" x="265.2548" y="-325.3269" font-family="Helvetica,sans-Serif" font-size="10.00" fill="#ffffff">fledge.</text>
<text text-anchor="middle" x="265.2548" y="-314.3269" font-family="Helvetica,sans-Serif" font-size="10.00" fill="#ffffff">federated.</text>
<text text-anchor="middle" x="265.2548" y="-303.3269" font-family="Helvetica,sans-Serif" font-size="10.00" fill="#ffffff">config</text>
</g>
<!-- fledge_federated_config&#45;&gt;fledge_federated -->
<g id="edge13" class="edge">
<title>fledge_federated_config&#45;&gt;fledge_federated</title><style>.edge>path:hover{stroke-width:8}</style>
<path fill="none" stroke="#000000" d="M263.0874,-287.8103C262.3407,-261.9416 264.2182,-223.6683 278.2548,-193.8528 283.9539,-181.7473 293.2855,-170.6558 302.7118,-161.5275"/>
<polygon fill="#c24747" stroke="#000000" points="305.2145,-163.9815 310.2242,-154.6459 300.4862,-158.8198 305.2145,-163.9815"/>
</g>
<!-- fledge_federated_config&#45;&gt;fledge_federated_flplan -->
<g id="edge14" class="edge">
<title>fledge_federated_config&#45;&gt;fledge_federated_flplan</title><style>.edge>path:hover{stroke-width:8}</style>
<path fill="none" stroke="#000000" d="M284.8429,-290.1467C292.1995,-280.1265 300.6762,-268.5806 308.5084,-257.9126"/>
<polygon fill="#c24747" stroke="#000000" points="311.521,-259.7234 314.6178,-249.5912 305.8784,-255.5807 311.521,-259.7234"/>
</g>
<!-- fledge_federated_flplan&#45;&gt;fledge_federated -->
<g id="edge15" class="edge">
<title>fledge_federated_flplan&#45;&gt;fledge_federated</title><style>.edge>path:hover{stroke-width:8}</style>
<path fill="none" stroke="#000000" d="M334.2548,-193.6593C334.2548,-185.4167 334.2548,-176.4134 334.2548,-168.0463"/>
<polygon fill="#8f3d3d" stroke="#000000" points="337.7549,-167.8933 334.2548,-157.8933 330.7549,-167.8933 337.7549,-167.8933"/>
</g>
<!-- fledge_pipelines -->
<g id="node10" class="node">
<title>fledge_pipelines</title><style>.edge>path:hover{stroke-width:8}</style>
<ellipse fill="#ce3b3b" stroke="#000000" cx="299.2548" cy="-684.9798" rx="43.2674" ry="21.4286"/>
<text text-anchor="middle" x="299.2548" y="-687.9798" font-family="Helvetica,sans-Serif" font-size="10.00" fill="#ffffff">fledge.</text>
<text text-anchor="middle" x="299.2548" y="-676.9798" font-family="Helvetica,sans-Serif" font-size="10.00" fill="#ffffff">pipelines</text>
</g>
<!-- fledge_pipelines&#45;&gt;fledge_aggregator_aggregator -->
<g id="edge16" class="edge">
<title>fledge_pipelines&#45;&gt;fledge_aggregator_aggregator</title><style>.edge>path:hover{stroke-width:8}</style>
<path fill="none" stroke="#000000" d="M314.4317,-664.7935C326.6147,-646.4607 341.5034,-618.2047 340.2548,-590.997"/>
<path fill="none" stroke="#000000" d="M340.2548,-590.997C338.6176,-555.3215 307.1388,-528.8405 277.9722,-511.8488"/>
<polygon fill="#ce3b3b" stroke="#000000" points="279.4715,-508.6779 269.0303,-506.8804 276.0717,-514.7968 279.4715,-508.6779"/>
</g>
<!-- fledge_pipelines&#45;&gt;fledge_collaborator_collaborator -->
<g id="edge17" class="edge">
<title>fledge_pipelines&#45;&gt;fledge_collaborator_collaborator</title><style>.edge>path:hover{stroke-width:8}</style>
<path fill="none" stroke="#000000" d="M332.8635,-671.4806C385.7816,-649.7252 482.6315,-607.6651 483.2548,-590.997"/>
<path fill="none" stroke="#000000" d="M483.2548,-590.997C484.1438,-567.2234 473.0492,-543.2162 461.0879,-524.4947"/>
<polygon fill="#ce3b3b" stroke="#000000" points="463.871,-522.3614 455.3838,-516.0196 458.0637,-526.2699 463.871,-522.3614"/>
</g>
<!-- fledge_pipelines&#45;&gt;fledge_federated_flplan -->
<g id="edge18" class="edge">
<title>fledge_pipelines&#45;&gt;fledge_federated_flplan</title><style>.edge>path:hover{stroke-width:8}</style>
<path fill="none" stroke="#000000" d="M340.2548,-590.997C334.6686,-469.2718 284.7757,-425.318 340.2548,-316.8269"/>
</g>
<!-- fledge_protocols -->
<g id="node11" class="node">
<title>fledge_protocols</title><style>.edge>path:hover{stroke-width:8}</style>
<ellipse fill="#e50505" stroke="#000000" cx="410.2548" cy="-800.4062" rx="43.6818" ry="21.4286"/>
<text text-anchor="middle" x="410.2548" y="-803.4062" font-family="Helvetica,sans-Serif" font-size="10.00" fill="#ffffff">fledge.</text>
<text text-anchor="middle" x="410.2548" y="-792.4062" font-family="Helvetica,sans-Serif" font-size="10.00" fill="#ffffff">protocols</text>
</g>
<!-- fledge_protocols&#45;&gt;fledge_aggregator_aggregator -->
<g id="edge19" class="edge">
<title>fledge_protocols&#45;&gt;fledge_aggregator_aggregator</title><style>.edge>path:hover{stroke-width:8}</style>
<path fill="none" stroke="#000000" d="M228.2548,-742.693C216.0785,-720.117 224.1931,-710.3065 228.2548,-684.9798"/>
</g>
<!-- fledge_protocols&#45;&gt;fledge_collaborator_collaborator -->
<g id="edge20" class="edge">
<title>fledge_protocols&#45;&gt;fledge_collaborator_collaborator</title><style>.edge>path:hover{stroke-width:8}</style>
<path fill="none" stroke="#000000" d="M228.2548,-742.693C203.0631,-695.9855 417.605,-731.4912 464.2548,-706.193 475.381,-700.1593 474.409,-694.0324 483.2548,-684.9798"/>
<path fill="none" stroke="#000000" d="M483.2548,-684.9798C512.4477,-655.1047 481.694,-632.738 483.2548,-590.997"/>
</g>
<!-- fledge_transport_grpc_client -->
<g id="node17" class="node">
<title>fledge_transport_grpc_client</title><style>.edge>path:hover{stroke-width:8}</style>
<ellipse fill="#a44646" stroke="#000000" cx="45.2548" cy="-590.997" rx="45.011" ry="36.5405"/>
<text text-anchor="middle" x="45.2548" y="-604.997" font-family="Helvetica,sans-Serif" font-size="10.00" fill="#ffffff">fledge.</text>
<text text-anchor="middle" x="45.2548" y="-593.997" font-family="Helvetica,sans-Serif" font-size="10.00" fill="#ffffff">transport.</text>
<text text-anchor="middle" x="45.2548" y="-582.997" font-family="Helvetica,sans-Serif" font-size="10.00" fill="#ffffff">grpc.</text>
<text text-anchor="middle" x="45.2548" y="-571.997" font-family="Helvetica,sans-Serif" font-size="10.00" fill="#ffffff">client</text>
</g>
<!-- fledge_protocols&#45;&gt;fledge_transport_grpc_client -->
<g id="edge21" class="edge">
<title>fledge_protocols&#45;&gt;fledge_transport_grpc_client</title><style>.edge>path:hover{stroke-width:8}</style>
<path fill="none" stroke="#000000" d="M368.268,-793.8705C318.8432,-785.1098 241.748,-767.7104 228.2548,-742.693"/>
<path fill="none" stroke="#000000" d="M228.2548,-742.693C207.7644,-704.7022 174.9502,-728.9221 138.2548,-706.193 126.1523,-698.6967 124.2395,-695.1274 114.2548,-684.9798"/>
</g>
<!-- fledge_transport_grpc_server -->
<g id="node18" class="node">
<title>fledge_transport_grpc_server</title><style>.edge>path:hover{stroke-width:8}</style>
<ellipse fill="#a44646" stroke="#000000" cx="154.2548" cy="-590.997" rx="45.011" ry="36.5405"/>
<text text-anchor="middle" x="154.2548" y="-604.997" font-family="Helvetica,sans-Serif" font-size="10.00" fill="#ffffff">fledge.</text>
<text text-anchor="middle" x="154.2548" y="-593.997" font-family="Helvetica,sans-Serif" font-size="10.00" fill="#ffffff">transport.</text>
<text text-anchor="middle" x="154.2548" y="-582.997" font-family="Helvetica,sans-Serif" font-size="10.00" fill="#ffffff">grpc.</text>
<text text-anchor="middle" x="154.2548" y="-571.997" font-family="Helvetica,sans-Serif" font-size="10.00" fill="#ffffff">server</text>
</g>
<!-- fledge_protocols&#45;&gt;fledge_transport_grpc_server -->
<g id="edge22" class="edge">
<title>fledge_protocols&#45;&gt;fledge_transport_grpc_server</title><style>.edge>path:hover{stroke-width:8}</style>
<path fill="none" stroke="#000000" d="M228.2548,-742.693C208.121,-705.3633 163.9963,-725.7353 152.2548,-684.9798"/>
</g>
<!-- fledge_protocols&#45;&gt;scripts_plan -->
<g id="edge23" class="edge">
<title>fledge_protocols&#45;&gt;scripts_plan</title><style>.edge>path:hover{stroke-width:8}</style>
<path fill="none" stroke="#000000" d="M483.2548,-684.9798C514.7436,-652.7551 516.7686,-635.8284 521.2548,-590.997"/>
<path fill="none" stroke="#000000" d="M521.2548,-590.997C529.5732,-507.872 521.2548,-486.5718 521.2548,-403.0315 521.2548,-403.0315 521.2548,-403.0315 521.2548,-136.6396 521.2548,-103.0158 501.7816,-68.9094 485.8016,-46.5818"/>
<polygon fill="#e50505" stroke="#000000" points="488.451,-44.2792 479.6762,-38.3416 482.8331,-48.4552 488.451,-44.2792"/>
</g>
<!-- fledge_protocols_federation_pb2 -->
<g id="node12" class="node">
<title>fledge_protocols_federation_pb2</title><style>.edge>path:hover{stroke-width:8}</style>
<ellipse fill="#c24747" stroke="#000000" cx="365.2548" cy="-980.5935" rx="63.7795" ry="28.9828"/>
<text text-anchor="middle" x="365.2548" y="-989.0935" font-family="Helvetica,sans-Serif" font-size="10.00" fill="#ffffff">fledge.</text>
<text text-anchor="middle" x="365.2548" y="-978.0935" font-family="Helvetica,sans-Serif" font-size="10.00" fill="#ffffff">protocols.</text>
<text text-anchor="middle" x="365.2548" y="-967.0935" font-family="Helvetica,sans-Serif" font-size="10.00" fill="#ffffff">federation_pb2</text>
</g>
<!-- fledge_protocols_federation_pb2&#45;&gt;fledge_protocols -->
<g id="edge24" class="edge">
<title>fledge_protocols_federation_pb2&#45;&gt;fledge_protocols</title><style>.edge>path:hover{stroke-width:8}</style>
<path fill="none" stroke="#000000" d="M378.277,-951.941C382.9315,-940.785 387.8592,-927.7762 391.2548,-915.6022 398.9997,-887.835 404.0033,-855.3669 406.9211,-831.9907"/>
<polygon fill="#c24747" stroke="#000000" points="410.4109,-832.2832 408.1173,-821.9396 403.46,-831.4559 410.4109,-832.2832"/>
</g>
<!-- fledge_protocols_federation_pb2_grpc -->
<g id="node13" class="node">
<title>fledge_protocols_federation_pb2_grpc</title><style>.edge>path:hover{stroke-width:8}</style>
<ellipse fill="#9d4343" stroke="#000000" cx="300.2548" cy="-886.6108" rx="82.0488" ry="28.9828"/>
<text text-anchor="middle" x="300.2548" y="-895.1108" font-family="Helvetica,sans-Serif" font-size="10.00" fill="#ffffff">fledge.</text>
<text text-anchor="middle" x="300.2548" y="-884.1108" font-family="Helvetica,sans-Serif" font-size="10.00" fill="#ffffff">protocols.</text>
<text text-anchor="middle" x="300.2548" y="-873.1108" font-family="Helvetica,sans-Serif" font-size="10.00" fill="#ffffff">federation_pb2_grpc</text>
</g>
<!-- fledge_protocols_federation_pb2&#45;&gt;fledge_protocols_federation_pb2_grpc -->
<g id="edge25" class="edge">
<title>fledge_protocols_federation_pb2&#45;&gt;fledge_protocols_federation_pb2_grpc</title><style>.edge>path:hover{stroke-width:8}</style>
<path fill="none" stroke="#000000" d="M346.1043,-952.9039C339.7322,-943.6907 332.5316,-933.2794 325.7568,-923.4838"/>
<polygon fill="#c24747" stroke="#000000" points="328.5113,-921.3134 319.9444,-915.0797 322.7541,-925.2952 328.5113,-921.3134"/>
</g>
<!-- fledge_protocols_federation_pb2_grpc&#45;&gt;fledge_protocols -->
<g id="edge26" class="edge">
<title>fledge_protocols_federation_pb2_grpc&#45;&gt;fledge_protocols</title><style>.edge>path:hover{stroke-width:8}</style>
<path fill="none" stroke="#000000" d="M334.156,-860.0432C348.5093,-848.7948 365.1223,-835.7756 379.1572,-824.7767"/>
<polygon fill="#9d4343" stroke="#000000" points="381.3742,-827.4861 387.0862,-818.5629 377.0563,-821.9764 381.3742,-827.4861"/>
</g>
<!-- fledge_protocols_utils -->
<g id="node14" class="node">
<title>fledge_protocols_utils</title><style>.edge>path:hover{stroke-width:8}</style>
<ellipse fill="#a44646" stroke="#000000" cx="484.2548" cy="-886.6108" rx="45.9239" ry="28.9828"/>
<text text-anchor="middle" x="484.2548" y="-895.1108" font-family="Helvetica,sans-Serif" font-size="10.00" fill="#ffffff">fledge.</text>
<text text-anchor="middle" x="484.2548" y="-884.1108" font-family="Helvetica,sans-Serif" font-size="10.00" fill="#ffffff">protocols.</text>
<text text-anchor="middle" x="484.2548" y="-873.1108" font-family="Helvetica,sans-Serif" font-size="10.00" fill="#ffffff">utils</text>
</g>
<!-- fledge_protocols_utils&#45;&gt;fledge_protocols -->
<g id="edge27" class="edge">
<title>fledge_protocols_utils&#45;&gt;fledge_protocols</title><style>.edge>path:hover{stroke-width:8}</style>
<path fill="none" stroke="#000000" d="M462.0524,-860.7466C453.164,-850.3923 442.9116,-838.449 433.8856,-827.9343"/>
<polygon fill="#a44646" stroke="#000000" points="436.4346,-825.5302 427.2653,-820.2222 431.1231,-830.0897 436.4346,-825.5302"/>
</g>
<!-- fledge_transport -->
<g id="node15" class="node">
<title>fledge_transport</title><style>.edge>path:hover{stroke-width:8}</style>
<ellipse fill="#c04040" stroke="#000000" cx="79.2548" cy="-403.0315" rx="43.2674" ry="21.4286"/>
<text text-anchor="middle" x="79.2548" y="-406.0315" font-family="Helvetica,sans-Serif" font-size="10.00" fill="#ffffff">fledge.</text>
<text text-anchor="middle" x="79.2548" y="-395.0315" font-family="Helvetica,sans-Serif" font-size="10.00" fill="#ffffff">transport</text>
</g>
<!-- fledge_transport&#45;&gt;fledge_federated_flplan -->
<g id="edge28" class="edge">
<title>fledge_transport&#45;&gt;fledge_federated_flplan</title><style>.edge>path:hover{stroke-width:8}</style>
<path fill="none" stroke="#000000" d="M111.7044,-388.9024C118.4164,-386.3044 125.5008,-383.7932 132.2548,-381.8183 214.3284,-357.8199 250.1742,-393.353 321.2548,-345.8183 334.0608,-337.2544 333.2407,-330.5432 340.2548,-316.8269"/>
<path fill="none" stroke="#000000" d="M340.2548,-316.8269C348.8421,-300.0343 348.4718,-279.2918 345.4731,-261.5691"/>
<polygon fill="#c04040" stroke="#000000" points="348.8578,-260.6476 343.4516,-251.5359 341.9957,-262.0302 348.8578,-260.6476"/>
</g>
<!-- fledge_transport&#45;&gt;scripts_service -->
<g id="edge29" class="edge">
<title>fledge_transport&#45;&gt;scripts_service</title><style>.edge>path:hover{stroke-width:8}</style>
<path fill="none" stroke="#000000" d="M113.3074,-389.9202C141.8853,-376.594 179.6882,-352.7591 190.2548,-316.8269"/>
<path fill="none" stroke="#000000" d="M190.2548,-316.8269C217.915,-222.7674 226.2852,-197.2772 280.2548,-115.4264 297.1981,-89.7301 321.2142,-64.3112 339.7225,-46.3643"/>
<polygon fill="#c04040" stroke="#000000" points="342.4628,-48.5872 347.2808,-39.1512 337.63,-43.5232 342.4628,-48.5872"/>
</g>
<!-- fledge_transport_grpc -->
<g id="node16" class="node">
<title>fledge_transport_grpc</title><style>.edge>path:hover{stroke-width:8}</style>
<ellipse fill="#ac4949" stroke="#000000" cx="79.2548" cy="-489.2361" rx="45.011" ry="28.9828"/>
<text text-anchor="middle" x="79.2548" y="-497.7361" font-family="Helvetica,sans-Serif" font-size="10.00" fill="#ffffff">fledge.</text>
<text text-anchor="middle" x="79.2548" y="-486.7361" font-family="Helvetica,sans-Serif" font-size="10.00" fill="#ffffff">transport.</text>
<text text-anchor="middle" x="79.2548" y="-475.7361" font-family="Helvetica,sans-Serif" font-size="10.00" fill="#ffffff">grpc</text>
</g>
<!-- fledge_transport_grpc&#45;&gt;fledge_transport -->
<g id="edge30" class="edge">
<title>fledge_transport_grpc&#45;&gt;fledge_transport</title><style>.edge>path:hover{stroke-width:8}</style>
<path fill="none" stroke="#000000" d="M79.2548,-460.0512C79.2548,-451.8086 79.2548,-442.8053 79.2548,-434.4382"/>
<polygon fill="#ac4949" stroke="#000000" points="82.7549,-434.2852 79.2548,-424.2852 75.7549,-434.2853 82.7549,-434.2852"/>
</g>
<!-- fledge_transport_grpc_client&#45;&gt;fledge_transport_grpc -->
<g id="edge31" class="edge">
<title>fledge_transport_grpc_client&#45;&gt;fledge_transport_grpc</title><style>.edge>path:hover{stroke-width:8}</style>
<path fill="none" stroke="#000000" d="M57.1464,-555.406C60.184,-546.3145 63.4615,-536.5051 66.5387,-527.2952"/>
<polygon fill="#a44646" stroke="#000000" points="69.9289,-528.1929 69.7783,-517.5991 63.2896,-525.9746 69.9289,-528.1929"/>
</g>
<!-- fledge_transport_grpc_server&#45;&gt;fledge_transport_grpc -->
<g id="edge32" class="edge">
<title>fledge_transport_grpc_server&#45;&gt;fledge_transport_grpc</title><style>.edge>path:hover{stroke-width:8}</style>
<path fill="none" stroke="#000000" d="M130.9355,-559.3571C122.631,-548.0894 113.2383,-535.3453 104.76,-523.8418"/>
<polygon fill="#a44646" stroke="#000000" points="107.5271,-521.6969 98.7766,-515.7235 101.8921,-525.85 107.5271,-521.6969"/>
</g>
<!-- fledge_utilities -->
<g id="node19" class="node">
<title>fledge_utilities</title><style>.edge>path:hover{stroke-width:8}</style>
<ellipse fill="#c82323" stroke="#000000" cx="484.2548" cy="-1066.7981" rx="37.4533" ry="21.4286"/>
<text text-anchor="middle" x="484.2548" y="-1069.7981" font-family="Helvetica,sans-Serif" font-size="10.00" fill="#ffffff">fledge.</text>
<text text-anchor="middle" x="484.2548" y="-1058.7981" font-family="Helvetica,sans-Serif" font-size="10.00" fill="#ffffff">utilities</text>
</g>
<!-- fledge_utilities&#45;&gt;fledge_aggregator_aggregator -->
<g id="edge33" class="edge">
<title>fledge_utilities&#45;&gt;fledge_aggregator_aggregator</title><style>.edge>path:hover{stroke-width:8}</style>
<path fill="none" stroke="#000000" d="M447.614,-1061.794C368.8021,-1048.7569 190.2548,-1006.042 190.2548,-886.6108 190.2548,-886.6108 190.2548,-886.6108 190.2548,-800.4062 190.2548,-746.3971 219.7025,-738.3075 228.2548,-684.9798"/>
<path fill="none" stroke="#000000" d="M228.2548,-684.9798C233.3588,-630.94 232.0937,-568.1332 230.4204,-528.5367"/>
<polygon fill="#c82323" stroke="#000000" points="233.9148,-528.3319 229.9662,-518.5003 226.9219,-528.6483 233.9148,-528.3319"/>
</g>
<!-- fledge_utilities&#45;&gt;fledge_collaborator_collaborator -->
<g id="edge34" class="edge">
<title>fledge_utilities&#45;&gt;fledge_collaborator_collaborator</title><style>.edge>path:hover{stroke-width:8}</style>
<path fill="none" stroke="#000000" d="M558.2548,-980.5935C580.2847,-850.03 544.5804,-815.3181 521.2548,-684.9798"/>
<path fill="none" stroke="#000000" d="M521.2548,-684.9798C512.2048,-640.8428 481.5712,-636.0208 483.2548,-590.997"/>
</g>
<!-- fledge_utilities&#45;&gt;fledge_protocols_utils -->
<g id="edge35" class="edge">
<title>fledge_utilities&#45;&gt;fledge_protocols_utils</title><style>.edge>path:hover{stroke-width:8}</style>
<path fill="none" stroke="#000000" d="M508.5009,-1050.3132C528.1141,-1035.0036 553.2668,-1010.1561 558.2548,-980.5935"/>
<path fill="none" stroke="#000000" d="M558.2548,-980.5935C562.6778,-954.3804 544.1752,-930.8834 524.5682,-913.9404"/>
<polygon fill="#c82323" stroke="#000000" points="526.7095,-911.1701 516.7528,-907.5486 522.2779,-916.5888 526.7095,-911.1701"/>
</g>
<!-- fledge_utilities&#45;&gt;scripts_plan -->
<g id="edge36" class="edge">
<title>fledge_utilities&#45;&gt;scripts_plan</title><style>.edge>path:hover{stroke-width:8}</style>
<path fill="none" stroke="#000000" d="M521.2548,-684.9798C512.8647,-644.061 516.6875,-632.5167 521.2548,-590.997"/>
</g>
<!-- fledge_utilities_checks -->
<g id="node20" class="node">
<title>fledge_utilities_checks</title><style>.edge>path:hover{stroke-width:8}</style>
<ellipse fill="#b65353" stroke="#000000" cx="581.2548" cy="-1153.0027" rx="39.6962" ry="28.9828"/>
<text text-anchor="middle" x="581.2548" y="-1161.5027" font-family="Helvetica,sans-Serif" font-size="10.00" fill="#ffffff">fledge.</text>
<text text-anchor="middle" x="581.2548" y="-1150.5027" font-family="Helvetica,sans-Serif" font-size="10.00" fill="#ffffff">utilities.</text>
<text text-anchor="middle" x="581.2548" y="-1139.5027" font-family="Helvetica,sans-Serif" font-size="10.00" fill="#ffffff">checks</text>
</g>
<!-- fledge_utilities_checks&#45;&gt;fledge_utilities -->
<g id="edge37" class="edge">
<title>fledge_utilities_checks&#45;&gt;fledge_utilities</title><style>.edge>path:hover{stroke-width:8}</style>
<path fill="none" stroke="#000000" d="M556.0224,-1130.5785C542.602,-1118.6517 526.0666,-1103.9565 512.2514,-1091.6789"/>
<polygon fill="#b65353" stroke="#000000" points="514.2756,-1088.7953 504.4757,-1084.7686 509.6255,-1094.0277 514.2756,-1088.7953"/>
</g>
<!-- fledge_utilities_types -->
<g id="node21" class="node">
<title>fledge_utilities_types</title><style>.edge>path:hover{stroke-width:8}</style>
<ellipse fill="#b65353" stroke="#000000" cx="387.2548" cy="-1153.0027" rx="39.6962" ry="28.9828"/>
<text text-anchor="middle" x="387.2548" y="-1161.5027" font-family="Helvetica,sans-Serif" font-size="10.00" fill="#ffffff">fledge.</text>
<text text-anchor="middle" x="387.2548" y="-1150.5027" font-family="Helvetica,sans-Serif" font-size="10.00" fill="#ffffff">utilities.</text>
<text text-anchor="middle" x="387.2548" y="-1139.5027" font-family="Helvetica,sans-Serif" font-size="10.00" fill="#ffffff">types</text>
</g>
<!-- fledge_utilities_types&#45;&gt;fledge_utilities -->
<g id="edge38" class="edge">
<title>fledge_utilities_types&#45;&gt;fledge_utilities</title><style>.edge>path:hover{stroke-width:8}</style>
<path fill="none" stroke="#000000" d="M412.4872,-1130.5785C425.9077,-1118.6517 442.4431,-1103.9565 456.2582,-1091.6789"/>
<polygon fill="#b65353" stroke="#000000" points="458.8841,-1094.0277 464.0339,-1084.7686 454.2341,-1088.7953 458.8841,-1094.0277"/>
</g>
<!-- fledge_utilities_utils -->
<g id="node22" class="node">
<title>fledge_utilities_utils</title><style>.edge>path:hover{stroke-width:8}</style>
<ellipse fill="#b65353" stroke="#000000" cx="484.2548" cy="-1153.0027" rx="39.6962" ry="28.9828"/>
<text text-anchor="middle" x="484.2548" y="-1161.5027" font-family="Helvetica,sans-Serif" font-size="10.00" fill="#ffffff">fledge.</text>
<text text-anchor="middle" x="484.2548" y="-1150.5027" font-family="Helvetica,sans-Serif" font-size="10.00" fill="#ffffff">utilities.</text>
<text text-anchor="middle" x="484.2548" y="-1139.5027" font-family="Helvetica,sans-Serif" font-size="10.00" fill="#ffffff">utils</text>
</g>
<!-- fledge_utilities_utils&#45;&gt;fledge_utilities -->
<g id="edge39" class="edge">
<title>fledge_utilities_utils&#45;&gt;fledge_utilities</title><style>.edge>path:hover{stroke-width:8}</style>
<path fill="none" stroke="#000000" d="M484.2548,-1123.8178C484.2548,-1115.5752 484.2548,-1106.5719 484.2548,-1098.2048"/>
<polygon fill="#b65353" stroke="#000000" points="487.7549,-1098.0518 484.2548,-1088.0518 480.7549,-1098.0518 487.7549,-1098.0518"/>
</g>
<!-- grpc -->
<g id="node23" class="node">
<title>grpc</title><style>.edge>path:hover{stroke-width:8}</style>
<ellipse fill="#26d926" stroke="#000000" cx="228.2548" cy="-1153.0027" rx="27" ry="18"/>
<text text-anchor="middle" x="228.2548" y="-1150.5027" font-family="Helvetica,sans-Serif" font-size="10.00" fill="#000000">grpc</text>
</g>
<!-- grpc&#45;&gt;fledge_protocols_federation_pb2_grpc -->
<g id="edge40" class="edge">
<title>grpc&#45;&gt;fledge_protocols_federation_pb2_grpc</title><style>.edge>path:hover{stroke-width:8}</style>
<path fill="none" stroke="#000000" d="M228.2548,-1066.7981C217.3416,-1014.9851 246.9716,-958.8705 271.4732,-923.2688"/>
<polygon fill="#26d926" stroke="#000000" points="274.6374,-924.8572 277.5642,-914.6746 268.9263,-920.8095 274.6374,-924.8572"/>
</g>
<!-- grpc&#45;&gt;fledge_transport_grpc_client -->
<g id="edge41" class="edge">
<title>grpc&#45;&gt;fledge_transport_grpc_client</title><style>.edge>path:hover{stroke-width:8}</style>
<path fill="none" stroke="#000000" d="M230.0403,-1135.0174C231.3642,-1117.4705 232.3161,-1090.0932 228.2548,-1066.7981"/>
<path fill="none" stroke="#000000" d="M228.2548,-1066.7981C222.3533,-1032.9472 190.0679,-1041.0478 176.2548,-1009.5849 128.3787,-900.5343 171.1139,-860.2876 152.2548,-742.693"/>
<path fill="none" stroke="#000000" d="M152.2548,-742.693C146.0864,-712.6077 135.7945,-706.8708 114.2548,-684.9798"/>
<path fill="none" stroke="#000000" d="M114.2548,-684.9798C98.7803,-669.2528 83.9744,-649.8803 72.073,-632.8177"/>
<polygon fill="#26d926" stroke="#000000" points="74.6652,-630.4087 66.1259,-624.1372 68.8904,-634.365 74.6652,-630.4087"/>
</g>
<!-- grpc&#45;&gt;fledge_transport_grpc_server -->
<g id="edge42" class="edge">
<title>grpc&#45;&gt;fledge_transport_grpc_server</title><style>.edge>path:hover{stroke-width:8}</style>
<path fill="none" stroke="#000000" d="M152.2548,-742.693C148.1931,-717.3663 159.3558,-709.6276 152.2548,-684.9798"/>
<path fill="none" stroke="#000000" d="M152.2548,-684.9798C147.9599,-670.0718 147.1305,-653.2762 147.7851,-638.0505"/>
<polygon fill="#26d926" stroke="#000000" points="151.2951,-638.0089 148.451,-627.8029 144.3098,-637.5549 151.2951,-638.0089"/>
</g>
</g>
</svg>
